<?xml version="1.0" encoding="UTF-8" standalone="no"?>
<!DOCTYPE svg PUBLIC "-//W3C//DTD SVG 1.1//EN" "http://www.w3.org/Graphics/SVG/1.1/DTD/svg11.dtd">
<svg xmlns="http://www.w3.org/2000/svg" version="1.1" viewBox="0.00 0.00 543.00 88.00">
<path fill="#ee1c25" d="
  M 84.67 40.82
  Q 93.30 48.66 91.72 59.25
  C 88.34 81.79 47.27 90.73 30.97 79.33
  A 0.64 0.64 0.0 0 0 29.97 79.98
  Q 30.35 81.87 28.50 81.90
  Q 17.00 82.05 5.50 81.99
  Q 5.00 81.99 5.00 81.49
  L 5.00 4.50
  A 0.50 0.50 0.0 0 1 5.50 4.00
  L 29.50 4.00
  Q 30.00 4.00 30.00 4.50
  L 30.00 33.23
  A 0.58 0.58 0.0 0 0 30.90 33.71
  C 45.98 23.65 71.89 29.21 84.67 40.82
  Z
  M 48.4690 75.7150
  A 19.35 18.37 88.7 0 0 66.3953 55.9532
  A 19.35 18.37 88.7 0 0 47.5910 37.0250
  A 19.35 18.37 88.7 0 0 29.6647 56.7868
  A 19.35 18.37 88.7 0 0 48.4690 75.7150
  Z"
/>
<path fill="#ee1c25" d="
  M 454.51 37.02
  L 442.76 36.96
  Q 442.01 36.96 442.01 36.21
  L 442.00 29.63
  Q 442.00 29.00 442.62 29.00
  L 454.50 29.00
  Q 455.00 29.00 455.00 28.50
  L 455.00 5.75
  A 0.75 0.75 0.0 0 1 455.75 5.00
  L 479.50 5.00
  Q 480.00 5.00 480.00 5.50
  L 480.00 28.50
  A 0.50 0.50 0.0 0 0 480.50 29.00
  L 508.25 29.00
  Q 509.00 29.00 509.00 29.75
  L 509.00 36.37
  Q 509.00 37.00 508.38 37.00
  L 480.55 37.00
  Q 480.09 37.00 480.08 37.46
  Q 479.80 59.51 480.01 65.23
  Q 480.18 69.83 484.78 72.68
  C 495.41 79.26 512.13 78.25 516.44 64.43
  A 0.61 0.59 -81.4 0 1 517.01 64.00
  L 539.27 64.00
  A 0.73 0.73 0.0 0 1 539.98 64.55
  C 541.62 71.02 531.58 78.06 526.68 80.18
  C 508.01 88.29 479.68 87.96 462.40 76.38
  C 456.30 72.28 455.28 67.48 455.13 59.87
  Q 454.91 48.71 455.02 37.54
  Q 455.02 37.02 454.51 37.02
  Z"
/>
<path fill="#ee1c25" d="
  M 214.51 35.73
  Q 221.12 30.20 228.97 28.71
  C 240.68 26.50 269.96 27.01 269.39 45.41
  Q 268.82 63.97 269.04 82.45
  A 0.55 0.55 0.0 0 1 268.49 83.00
  L 245.52 83.00
  A 0.49 0.49 0.0 0 1 245.03 82.51
  Q 244.94 65.91 245.01 49.44
  Q 245.03 44.97 243.69 42.85
  C 237.30 32.71 222.11 38.71 215.13 43.40
  A 2.59 2.59 0.0 0 0 214.00 45.54
  L 214.00 82.50
  A 0.50 0.50 0.0 0 1 213.50 83.00
  L 190.00 83.00
  A 1.00 1.00 0.0 0 1 189.00 82.00
  L 189.00 31.50
  A 0.50 0.50 0.0 0 1 189.50 31.00
  L 213.50 31.00
  A 0.50 0.50 0.0 0 1 214.00 31.50
  L 214.00 35.49
  Q 214.00 36.16 214.51 35.73
  Z"
/>
<path fill="#ee1c25" d="
  M 299.46 35.66
  Q 308.33 28.52 319.82 27.86
  C 331.51 27.19 354.56 28.61 354.20 45.75
  Q 353.82 63.86 354.06 82.42
  A 0.58 0.57 -0.5 0 1 353.48 83.00
  L 330.52 83.00
  A 0.49 0.49 0.0 0 1 330.03 82.52
  Q 329.92 64.54 330.02 46.72
  C 330.05 42.01 324.31 38.50 320.52 37.62
  C 314.43 36.20 305.96 39.64 300.49 42.88
  A 3.06 3.05 -15.5 0 0 299.00 45.50
  L 299.00 82.50
  A 0.50 0.50 0.0 0 1 298.50 83.00
  L 274.75 83.00
  Q 274.00 83.00 274.00 82.25
  L 274.00 31.50
  A 0.50 0.50 0.0 0 1 274.50 31.00
  L 298.36 31.00
  Q 298.96 31.00 298.99 31.61
  L 299.14 35.51
  Q 299.16 35.91 299.46 35.66
  Z"
/>
<path fill="#ee1c25" d="
  M 119.79 59.56
  C 125.04 78.92 149.16 82.00 157.90 63.54
  A 0.95 0.95 0.0 0 1 158.76 63.00
  L 182.26 63.00
  A 0.46 0.45 -79.0 0 1 182.68 63.63
  C 173.92 85.54 138.74 87.35 120.06 82.18
  C 106.41 78.40 90.26 66.15 95.83 49.83
  C 99.49 39.12 111.50 33.10 122.02 30.29
  Q 143.57 24.52 164.31 32.58
  C 173.83 36.28 185.06 45.18 183.86 56.47
  Q 183.80 57.00 183.27 57.00
  L 121.75 57.00
  Q 119.09 57.00 119.79 59.56
  Z
  M 157.78 48.67
  C 149.01 32.97 128.78 33.07 121.00 49.19
  A 0.57 0.56 -77.0 0 0 121.50 50.00
  L 157.00 50.00
  Q 158.53 50.00 157.78 48.67
  Z"
/>
<path fill="#ee1c25" d="
  M 386.02 57.65
  Q 385.85 58.98 386.35 60.75
  C 391.63 79.56 415.64 81.01 423.88 63.55
  A 0.96 0.96 0.0 0 1 424.75 63.00
  L 448.25 63.00
  A 0.50 0.50 0.0 0 1 448.71 63.69
  C 437.29 91.81 375.52 91.57 362.81 64.87
  C 356.06 50.69 366.44 39.12 378.67 33.76
  Q 401.29 23.84 425.17 30.84
  C 436.76 34.23 449.56 42.07 450.11 55.57
  A 1.37 1.37 0.0 0 1 448.74 57.00
  L 386.76 57.00
  A 0.75 0.74 3.5 0 0 386.02 57.65
  Z
  M 423.86 49.02
  C 415.86 33.19 394.23 32.81 386.84 49.33
  A 0.48 0.48 0.0 0 0 387.28 50.00
  L 423.26 50.00
  A 0.68 0.67 76.6 0 0 423.86 49.02
  Z"
/>
</svg>
