<svg id="logo_color" xmlns="http://www.w3.org/2000/svg" xmlns:xlink="http://www.w3.org/1999/xlink" width="98.326" height="108.554" viewBox="0 0 98.326 108.554">
  <defs>
    <clipPath id="clip-path">
      <rect id="Rettangolo_1594" data-name="Rettangolo 1594" width="98.326" height="108.554" transform="translate(0 0)" fill="none"/>
    </clipPath>
  </defs>
  <g id="Raggruppa_2706" data-name="Raggruppa 2706" transform="translate(0 0)">
    <g id="Raggruppa_2705" data-name="Raggruppa 2705" clip-path="url(#clip-path)">
      <path id="Tracciato_3378" data-name="Tracciato 3378" d="M75.747,43.995c-1.98-1.485-4.784-2.475-8.909-2.475-7.424,0-14.518,4.619-14.518,15.508,0,10.229,7.094,15.013,14.188,15.013,7.424,0,12.043-4.454,12.043-11.218,0-4.289-2.64-7.094-7.919-7.094H69.148c-2.8,0-4.949,1.32-4.949,4.124a4,4,0,0,0,4.124,3.794c.825,0,1.32.165,1.32.825,0,.825-.99,1.485-1.98,1.485-3.629,0-6.1-2.475-6.1-6.929,0-5.114,3.3-6.929,5.939-6.929,3.135,0,3.629,1.65,5.774,1.65a4.338,4.338,0,0,0,4.289-4.124,4.173,4.173,0,0,0-1.815-3.629" transform="translate(19.61 15.562)" fill="#d72300"/>
      <path id="Tracciato_3379" data-name="Tracciato 3379" d="M41.5,59.832V66.6c0,3.135-1.815,5.609-4.949,5.609-3.3,0-5.114-2.475-5.114-5.609V47.129c0-3.135,1.815-5.609,5.114-5.609,1.98,0,3.794.825,5.444,3.959l4.454,8.579c.165.495.33.66.66.66s.495-.33.495-.825V46.964c0-2.97,1.815-5.444,4.949-5.444,3.3,0,5.114,2.475,5.114,5.444V66.6c0,2.97-1.815,5.609-5.114,5.609-1.98,0-3.794-.825-5.444-4.124l-4.454-8.414c-.165-.495-.33-.66-.66-.66s-.495.33-.495.825" transform="translate(11.784 15.562)" fill="#d72300"/>
      <path id="Tracciato_3380" data-name="Tracciato 3380" d="M10.229,66.6V62.142c0-.495.165-.66.66-.66s.495.495.66.66a33.459,33.459,0,0,0,4.784,7.589,6.538,6.538,0,0,0,4.784,2.475A5.459,5.459,0,0,0,26.4,66.761a6.44,6.44,0,0,0-1.98-4.454A36.771,36.771,0,0,1,19.8,56.7a1.066,1.066,0,0,1-.33-.825,1.426,1.426,0,0,1,.495-.99,23.835,23.835,0,0,0,4.289-4.619,6.965,6.965,0,0,0,1.32-3.794,5.146,5.146,0,0,0-5.279-4.949,5.443,5.443,0,0,0-4.454,2.8c-1.485,2.31-3.3,5.114-4.289,6.269-.33.33-.495.33-.66.33-.495,0-.66-.165-.66-.66V47.129c0-3.135-1.815-5.609-5.114-5.609S0,43.995,0,47.129V66.6c0,2.97,1.815,5.609,5.114,5.609s5.114-2.64,5.114-5.609" transform="translate(0 15.562)" fill="#d72300"/>
      <path id="Tracciato_3381" data-name="Tracciato 3381" d="M95.686,66.12c1.815,0,2.64.825,2.64,2.475,0,2.64-2.475,6.434-7.424,9.239-8.249,4.619-22.272,5.939-41.739,5.939s-33.655-1.32-41.739-5.939C2.475,75.029,0,71.234,0,68.595c0-1.65.825-2.475,2.64-2.475Z" transform="translate(0 24.782)" fill="#ff8732"/>
      <path id="Tracciato_3382" data-name="Tracciato 3382" d="M95.686,30.686H2.64A2.355,2.355,0,0,1,0,28.046C0,17.817,15.178,0,49.163,0,82.818,0,98.326,17.817,98.326,28.046a2.355,2.355,0,0,1-2.64,2.64" fill="#ff8732"/>
      <path id="Tracciato_3383" data-name="Tracciato 3383" d="M24.087,45.957c-5.114,0-7.754-3.135-7.754-6.929V28.469c0-1.98,1.155-3.464,3.135-3.464S22.6,26.49,22.6,28.469V38.7c0,.825.33,1.65,1.485,1.65a1.554,1.554,0,0,0,1.65-1.65V28.469c0-1.98.99-3.464,3.135-3.464,1.98,0,3.135,1.485,3.135,3.464V39.028c0,3.794-2.8,6.929-7.919,6.929M3.629,45.792H8.084c4.124,0,6.764-2.8,6.764-6.269A5.2,5.2,0,0,0,12.7,35.069l-.33-.33c0-.165.165-.33.33-.495a4.811,4.811,0,0,0,1.155-3.464C13.858,27.15,11.383,25,7.424,25H3.629C1.155,25,0,26.49,0,28.469V42.327c0,1.98,1.155,3.464,3.629,3.464m2.64-12.373a.779.779,0,0,1-.825-.825V30.449a.755.755,0,0,1,.825-.66H6.6a1.592,1.592,0,0,1,1.815,1.65A1.754,1.754,0,0,1,6.6,33.419Zm0,3.794h.495c1.65,0,1.98.99,1.98,1.815a1.8,1.8,0,0,1-1.98,1.98H6.269a.755.755,0,0,1-.825-.66V37.873c0-.495.33-.66.825-.66m34.315-3.3c-.495,0-.66-.33-.66-.825V30.944a.6.6,0,0,1,.66-.66h.495a1.815,1.815,0,1,1,0,3.629Zm-6.6,8.579c0,1.98.99,3.464,3.135,3.464,1.98,0,3.135-1.485,3.135-3.464v-3.3c0-.33.165-.66.495-.66s.495.33.495.66a12.03,12.03,0,0,0,1.98,4.949,3.726,3.726,0,0,0,2.97,1.815,3.1,3.1,0,0,0,3.135-2.97,4.173,4.173,0,0,0-.99-2.475,11.665,11.665,0,0,1-2.145-3.465c-.165-.165,0-.495.165-.66A6.214,6.214,0,0,0,48.5,31.274C48.5,27.315,45.2,25,41.244,25H37.615c-2.475,0-3.629,1.485-3.629,3.464Zm49,0c0,1.98.99,3.464,2.97,3.464,2.145,0,3.135-1.485,3.135-3.464v-3.3a.736.736,0,0,1,.495-.66.6.6,0,0,1,.66.66,14.68,14.68,0,0,0,1.815,4.949c1.155,1.32,2.145,1.815,3.135,1.815a3.1,3.1,0,0,0,3.135-2.97,4.173,4.173,0,0,0-.99-2.475,10.408,10.408,0,0,1-2.145-3.465.408.408,0,0,1,.165-.66A6.214,6.214,0,0,0,97.5,31.274C97.5,27.315,94.2,25,90.242,25H86.612c-2.475,0-3.629,1.485-3.629,3.464ZM77.7,37.873H75.559c-.66,0-.825.33-.825.825v.495c0,.495.165.825.825.825h2.8a2.864,2.864,0,0,1,3.135,2.8,2.9,2.9,0,0,1-3.135,2.97H72.425c-2.475,0-3.794-1.485-3.794-3.464V28.469c0-1.98,1.32-3.464,3.794-3.464h5.939a2.974,2.974,0,1,1,0,5.939h-2.8c-.66,0-.825.33-.825.66V32.1c0,.495.165.825.825.825H77.7a2.48,2.48,0,1,1,0,4.949M65.331,26.49a11.255,11.255,0,0,0-6.1-1.65c-4.784,0-9.569,3.3-9.569,10.723,0,7.094,4.784,10.393,9.4,10.393,4.949,0,8.084-3.135,8.084-7.754,0-2.97-1.65-4.949-5.279-4.949h-.99c-1.815,0-3.3.825-3.3,2.8a2.592,2.592,0,0,0,2.64,2.64c.66,0,.99.165.99.66,0,.66-.66.99-1.32.99-2.475,0-3.959-1.65-3.959-4.784,0-3.464,2.145-4.784,3.794-4.784,2.145,0,2.475,1.155,3.959,1.155a2.922,2.922,0,0,0,2.8-2.97,3.509,3.509,0,0,0-1.155-2.475m24.251,7.424a.779.779,0,0,1-.825-.825V30.944a.755.755,0,0,1,.825-.66h.495a1.59,1.59,0,0,1,1.65,1.815,1.59,1.59,0,0,1-1.65,1.815Z" transform="translate(0 9.31)" fill="#d72300"/>
      <path id="Tracciato_3384" data-name="Tracciato 3384" d="M31.768,47.459c0-3.3-1.98-5.939-5.444-5.939s-5.444,2.64-5.444,5.939V66.1c0,3.464,1.98,6.1,5.444,6.1s5.444-2.64,5.444-6.1Z" transform="translate(7.826 15.562)" fill="#d72300"/>
      <path id="Tracciato_3385" data-name="Tracciato 3385" d="M69.765,77.325c.165,0,.33,0,.33-.165s-.165-.165-.33-.165H69.6v.33Zm-.495.825V76.83c0-.165,0-.165.165-.165h.33c.495,0,.66.165.66.495a.527.527,0,0,1-.495.495l.33.33.165.165-.165.165c-.165,0-.165,0-.165-.165l-.495-.495v.495l-.165.165a.162.162,0,0,1-.165-.165m1.65-.66a1.165,1.165,0,1,0-2.31,0,1.155,1.155,0,0,0,2.31,0m-2.64,0a1.493,1.493,0,1,1,2.97,0,1.485,1.485,0,0,1-2.97,0" transform="translate(25.591 28.425)" fill="#d72300"/>
    </g>
  </g>
</svg>
