<svg style="transition: fill 0.2s ease-out; fill: rgb(255, 255, 255);" viewBox="0 0 341.999 42.159" height="42.159" width="341.999" class="logo--big" xmlns="http://www.w3.org/2000/svg">
    <path d="M274.862,42.159V0L288.93.176a13.508,13.508,0,0,1,7.713,3.374,9.5,9.5,0,0,1,3.243,7.406v1.4A11.333,11.333,0,0,1,296.95,20.2a11.663,11.663,0,0,1-7.713,3.725h-7.582V42.159Zm6.749-24.1h7.056a5.611,5.611,0,0,0,3.111-2.279,6.781,6.781,0,0,0,1.184-3.856,5.962,5.962,0,0,0-.833-3.155,4.856,4.856,0,0,0-2.542-2.06,17.752,17.752,0,0,0-2.41-.57h-5.566ZM220.082,36.2a19.3,19.3,0,0,1-6.4-14.637,20.482,20.482,0,0,1,6.179-14.944,20.212,20.212,0,0,1,14.9-6.179A21.582,21.582,0,0,1,249.97,6.4a19.3,19.3,0,0,1,6.4,14.638,20.378,20.378,0,0,1-6.179,14.944,20.212,20.212,0,0,1-14.9,6.179A21.579,21.579,0,0,1,220.082,36.2Zm4.295-25.505a15.1,15.1,0,0,0-4.251,10.737,13.722,13.722,0,0,0,4.426,10.386,15.026,15.026,0,0,0,10.737,4.251,13.881,13.881,0,0,0,10.43-4.426,15.148,15.148,0,0,0,4.251-10.693,13.791,13.791,0,0,0-4.47-10.43,15.03,15.03,0,0,0-10.737-4.294A13.762,13.762,0,0,0,224.376,10.693ZM188.7,42.159V.176h6.529V42.159Zm-40.143,0V.131H155.4V35.979h14.812v6.179Zm-65.955,0L77.656,30.107H63.325l-5,12.052H51.4L69.2.438h2.41l18.362,41.72ZM65.121,24.8h10.3L70.161,11.351ZM318.335,42.158V.175H342V6.31H325V16.39h17v5.916H325V35.979h17v6.179Zm-209.914,0V.087h6.836V35.979h14.855v6.179ZM13.191,40.624a21.457,21.457,0,0,1-6.837-4.075A21.048,21.048,0,0,1,0,21.343a18.3,18.3,0,0,1,2.542-9.817,28.318,28.318,0,0,1,4.82-6.179,15.878,15.878,0,0,1,4.6-3.068A25.38,25.38,0,0,1,15.47,1.1,19.124,19.124,0,0,1,18.23.614,20.326,20.326,0,0,1,20.992.438a26.981,26.981,0,0,1,4.119.351,30.756,30.756,0,0,1,4.339.964l.175.044,3.331,1.534v7.231L31.6,9.6a17,17,0,0,0-9.992-3.243,15.6,15.6,0,0,0-6.836,1.49A14.928,14.928,0,0,0,9.335,12.4a15.82,15.82,0,0,0-2.717,8.9,15.694,15.694,0,0,0,2.059,7.757,13.238,13.238,0,0,0,5.654,5.433,16.231,16.231,0,0,0,7.406,1.841,13.417,13.417,0,0,0,7.186-1.973l3.988-2.542v7.45l-.526.219a31.642,31.642,0,0,1-5.566,1.8,26.02,26.02,0,0,1-5.784.657A23.577,23.577,0,0,1,13.191,40.624Z"></path>
</svg>
