<svg id="Layer_1" data-name="Layer 1" xmlns="http://www.w3.org/2000/svg" viewBox="0 0 1190.6 284.6"><defs><style>.cls-1{fill:#231f20;}</style></defs><path class="cls-1" d="M159.79,129.25c-.57-3.79-3.49-15.35-16.75-15.35-15,0-19.73,14.62-19.73,28.65S128.13,171.2,143,171.2c10.78,0,15-7.6,16.9-17.4h31.45c0,21-17,43.44-47.47,43.44-33.65,0-52.72-23.93-52.72-54.84,0-32.88,20.69-54.8,52.72-54.8,28.49.13,44.27,15.21,47,41.38Z"/><path class="cls-1" d="M257.53,157.3l-9.34-32.17h-.29l-10,32.17ZM232.32,90.19h31.32l38,104.42H268.31l-4.38-15H230.87l-4.67,15H194Z"/><path class="cls-1" d="M310.4,90.19h32v77.64h46v26.78H310.4Z"/><path class="cls-1" d="M401.71,169.45l48.36-52.61h-45.6V90.19h87.86v23.38l-48.82,54.26h51v26.78H401.71Z"/><path class="cls-1" d="M510.21,90.19h86.08V117h-54v13h49.08v24.8H542.26v13h55.63v26.78H510.21Z"/><path class="cls-1" d="M648.29,167.83H660.8c20,0,22.89-16.22,22.89-26,0-6.58-2-24.88-25.19-24.88H648.29Zm-32-77.64h52.61c34.67,0,46.88,25.73,46.88,52.06,0,32-16.88,52.36-53.15,52.36H616.24Z"/><path class="cls-1" d="M776.16,170.89c8.16,0,20.7-5.41,20.7-28.64s-12.52-28.65-20.7-28.65-20.67,5.41-20.67,28.65,12.52,28.64,20.67,28.64m0-83.29c31.61,0,52.72,22.82,52.72,54.8s-21.13,54.8-52.72,54.8-52.71-22.82-52.71-54.8,21.13-54.8,52.71-54.8"/><path class="cls-1" d="M838.66,90.19h32.88l30.29,55.87h.31V90.19h30.29V194.61h-31.3l-31.79-57H869v57H838.66Z"/><path class="cls-1" d="M952.11,90.19h32V194.61h-32Z"/><path class="cls-1" d="M1055.51,157.3l-9.34-32.15h-.29l-10,32.15ZM1030.3,90.19h31.32l37.88,104.42h-33.21l-4.38-15h-33.06l-4.64,15H992.09Z"/></svg>