<svg xmlns="http://www.w3.org/2000/svg" viewBox="0 0 96 61"><rect x="2" y="2" width="92" height="57" rx="9" fill="#12377E"/><rect x="70" y="12" width="6" height="18" fill="#008C45"/><rect x="76" y="12" width="6" height="18" fill="#F4F5F0"/><rect x="82" y="12" width="6" height="18" fill="#CD212A"/><path d="M35.1 21.6A11 11 0 1 0 35.1 38.4" fill="none" stroke="#FFFFFF" stroke-width="7" stroke-linecap="round"/><path d="M48 41V19h15M48 30h12" fill="none" stroke="#FFFFFF" stroke-width="7" stroke-linecap="round" stroke-linejoin="round"/><g fill="#FFFFFF"><rect x="14" y="46" width="3" height="8"/><rect x="21" y="46" width="5" height="8"/><rect x="30" y="46" width="3" height="8"/><rect x="37" y="46" width="6" height="8"/><rect x="47" y="46" width="3" height="8"/><rect x="54" y="46" width="4" height="8"/><rect x="62" y="46" width="3" height="8"/><rect x="69" y="46" width="6" height="8"/><rect x="79" y="46" width="3" height="8"/></g></svg>
