<svg xmlns="http://www.w3.org/2000/svg" xmlns:xlink="http://www.w3.org/1999/xlink" viewBox="0 0 1250.79365 322.22222"><defs><style>.a{fill:#fff;}.b{fill:#e20714;}.c{mask:url(#a);}.d{fill:#f08500;}.e{fill:#ffec00;}.f{fill:none;}</style><mask id="a" x="22.22222" y="23.77097" width="251.58491" height="274.68028" maskUnits="userSpaceOnUse"><g transform="translate(-14.60317 -238.88889)"><path class="a" d="M36.82542,537.32345V262.65986H288.39724V537.32345Z"/></g></mask></defs><title>conad-logo-freelogovectors.net</title><path class="b" d="M481.17936,399.10672c0-51.8438,41.07432-93.97,91.83277-93.97,50.72514,0,91.8495,42.12622,91.8495,93.98671,0,51.91059-41.12442,93.97-91.86618,93.97-50.72511,0-91.81613-42.07613-91.81613-93.97m52.51168-.78476c0,25.6631,14.35932,46.5175,39.57158,46.5175,25.04531,0,37.30083-20.85439,37.30083-46.5175,0-25.72988-12.25552-46.4674-37.30083-46.4674-25.21229,0-39.57158,20.73752-39.57158,46.4674m257.95,94.75477-64.43326-94.07019V450.4496c15.71179,0,15.71179,7.931,15.71179,7.931v34.71279H664.91176v-34.7295c0-7.91432,15.94554-7.91432,15.94554-7.91432V346.26111H664.91176V312.6503s.935-7.91432,15.94554-7.91432h46.35054l64.44995,97.109V346.27781H776.2967v-33.6609s-.31726-7.91432,15.36109-7.91432h46.3171s15.02721-.167,15.36109,7.91432c.334,8.098,0,33.6442,0,33.6442H837.97489V493.07673H791.641m197.44055-42.52694-4.17422-9.2H921.86s-4.67511,9.2-4.55823,9.2c12.7731,0,12.90667,7.88093,12.90667,7.88093v34.76289H852.952V458.43072s0-7.88093,12.73972-7.88093L912.17581,346.3279H899.15226V312.73378s.10019-7.94771,15.72848-7.94771h64.24957l61.81182,145.76371s12.97348,0,12.97348,7.88092v34.76289H976.392V458.4307s.03337-7.88092,12.68959-7.88092m-56.13495-48.5712h40.707L953.25,351.888M1067.07265,493.2103V458.4307c0-7.48019,15.57816-7.86422,15.57816-7.86422V346.3279h-15.57816V312.73378c0-8.0145,15.57816-7.4301,15.57816-7.4301h76.43828c50.50807.08348,84.08551,42.09282,84.08551,93.9366s-33.49387,93.86983-84.20232,93.97h-91.89963m61.51132-48.254h30.2213c24.97856-.10017,37.13384-20.95457,37.13384-46.51749,0-25.69649-12.32228-46.56759-37.30084-46.56759h-30.05443M440.58923,418.30812c-7.39673,14.65986-17.16439,27.44966-36.7832,27.44966-33.26019,0-47.48591-22.14006-47.48591-47.319,0-25.21229,17.46492-46.93491,44.71422-46.63438,0,0,26.38106.21706,28.21773,19.70231h44.54725s-.65117-48.28736-.65117-55.98462c0-6.72884-6.64537-6.72884-6.64537-6.72884H429.252v5.71033c-7.49688-7.714-21.23841-9.13319-28.21772-9.13319-50.80858,0-91.96638,41.02422-91.96638,93.06839,0,56.15159,41.12439,95.33915,91.96638,95.33915,31.59049,0,63.4982-20.27,80.145-49.63981L440.60591,418.2914" transform="translate(-14.60317 -238.88889)"/><g class="c"><path class="d" d="M109.37334,307.65794a53.93863,53.93863,0,0,0-72.54792,50.65832,54.33144,54.33144,0,0,0,19.20141,41.40825,57.99068,57.99068,0,0,0-11.98836,14.76A53.99067,53.99067,0,0,0,109.39,492.32536a53.925,53.925,0,0,0,106.35908.0501,54.03675,54.03675,0,0,0,53.01258-92.38381,54.43174,54.43174,0,0,0,19.50195-41.69209,53.94772,53.94772,0,0,0-72.49782-50.675,53.94637,53.94637,0,0,0-106.39248.03338" transform="translate(-14.60317 -238.88889)"/></g><path class="e" d="M121.12794,483.092a38.08422,38.08422,0,0,1,5.22612-20.11973A41.24127,41.24127,0,0,1,70.119,477.59873a41.69209,41.69209,0,0,1-15.17746-56.83617c6.9292-11.97166,16.94733-19.31827,31.64058-20.988a37.70154,37.70154,0,0,1-16.44642-5.3263A41.54006,41.54006,0,0,1,111.29575,322.282q.13272.07584.26488.15267A38.48225,38.48225,0,0,1,126.03682,336.46a38.26929,38.26929,0,0,1-4.89219-19.66892,41.50844,41.50844,0,0,1,41.44157-41.57519l.01678,0a41.49173,41.49173,0,0,1,41.42494,41.55841v.00011a38.05269,38.05269,0,0,1-4.67512,19.168,38.179,38.179,0,0,1,14.22574-13.57456,41.32476,41.32476,0,0,1,56.46964,15.055q.04991.08616.09938.17258a41.69209,41.69209,0,0,1-15.16076,56.81946,37.91855,37.91855,0,0,1-17.69869,5.42649,39.23963,39.23963,0,0,1,17.81557,5.76042,41.54893,41.54893,0,0,1-41.39022,72.05538l-.10153-.05845a38.2693,38.2693,0,0,1-14.44279-14.02538,38.27957,38.27957,0,0,1,4.8588,19.53535,41.45036,41.45036,0,1,1-82.9,0m0-83.18384a41.52513,41.52513,0,0,0,41.44152,41.60857l.03352,0a41.50841,41.50841,0,0,0,41.425-41.59171l0-.01691a41.45017,41.45017,0,1,0-82.9.01664v.00007" transform="translate(-14.60317 -238.88889)"/><rect class="f" width="1250.79365" height="322.22222"/></svg>