<?xml version="1.0" encoding="utf-8"?>
<!-- Generator: Adobe Illustrator 22.0.1, SVG Export Plug-In . SVG Version: 6.00 Build 0)  -->
<svg version="1.1" id="Ebene_1" xmlns="http://www.w3.org/2000/svg" xmlns:xlink="http://www.w3.org/1999/xlink" x="0px" y="0px"
	 viewBox="0 0 1920 1080" style="enable-background:new 0 0 1920 1080;" xml:space="preserve">
<style type="text/css">
	.st0{fill:#FE6600;}
	.st1{fill:#FEFEFD;}
	.st2{fill:#FEFBF9;}
	.st3{fill:#FE6601;}
	.st4{fill:#FFFFFF;}
	.st5{fill:#FEFBFA;}
</style>
<path class="st0" d="M654.5,831H106.6C80.3,831,59,809.7,59,783.4V247.6c0-26.3,21.3-47.6,47.6-47.6h547.9
	c26.3,0,47.6,21.3,47.6,47.6v535.8C702.1,809.7,680.8,831,654.5,831z"/>
<path class="st1" d="M425.4,439.3c0,39.4-29.9,70.1-68.2,70.2c-38.2,0.1-68.5-30.8-68.5-70c0-39,30.3-70.1,68.3-70.2
	C395.3,369.4,425.4,400.1,425.4,439.3z"/>
<path class="st1" d="M564,509.5c-38,0-69-31.6-68.7-70c0.3-39,30.7-70.1,68.7-70.1c37.8,0,69,31.8,68.8,70.1
	C632.7,478.3,602,509.5,564,509.5z"/>
<path class="st1" d="M357.1,661.1c-38.2,0-68.4-30.9-68.4-70c0-39,30.3-70.2,68.4-70.2c38.3,0,68.3,30.8,68.3,70.1
	C425.4,630.3,395.5,661.1,357.1,661.1z"/>
<path class="st2" d="M261.5,606.9c-12.4,0.6-82.4,0.6-102.8,1c-0.9-11.2-0.8-14.1,0.1-34.7c34.2,0,67.8,0,102,0"/>
<path class="st0" d="M1856.6,231.7c-10.9-21.4-28.1-31.2-52.4-31.2c-167.3,0.3-334.7,0.2-502,0.2c-166.3,0-332.6,0-498.9,0
	c-8.4,0-16.8-0.5-25,2.7c-23.6,9.1-35.7,27.5-35.7,55.8c0,171,0,342.1,0,513.1c0,2.1-0.1,4.2,0,6.3c1.2,25.7,18.8,46,43.9,51.1
	c7.3,1.5,14.7,1.3,22.1,1.3c328.9,0,657.8,0,986.6,0c6.3,0,12.7-0.1,18.9-1c28.2-3.8,46.7-24.4,46.7-52.7
	c0.1-174.7,0.1-349.5,0.1-524.2C1861,245.6,1860,238.4,1856.6,231.7z M1854.7,779.8c-1.4,23.9-19.5,42.4-43.5,44.5
	c-3.7,0.3-7.4,0.1-11.1,0.1c-331.6,0-663.3,0-994.9,0c-5.3,0-10.6,0.2-15.8-0.7c-20.9-3.4-34.8-17.3-39.4-38
	c-1.2-5.3-1.2-10.5-1.2-15.7c0-169.5,0-339,0-508.5c0-5.8,0-11.5,1.4-17.3c5.6-22.6,22-36.3,45.1-37.3c6.3-0.3,12.7-0.1,19-0.1
	c162.6,0,325.3,0,487.9,0c163.2,0,326.3,0,489.5,0c7.4,0,14.8-0.2,22.2,0.5c20.4,2,37.4,18.3,40.2,38.6c0.8,5.7,0.7,11.6,0.7,17.4
	c0,167.9,0,335.9,0,503.8C1854.8,771.4,1854.9,775.6,1854.7,779.8z"/>
<path class="st3" d="M357.9,403.7c19.2,0.4,33.4,16.1,33.1,36.5c-0.3,20.6-14.7,35-34.7,34.7c-19.4-0.3-33.4-15.6-33.1-36.3
	C323.5,418.4,338.5,403.3,357.9,403.7z"/>
<path class="st3" d="M564.3,403.7c18.7,0.1,34.3,16.5,34.2,36c-0.1,19.6-15.6,35.3-34.9,35.2c-19.4-0.1-34-15.6-33.9-35.8
	C529.9,419.3,545.3,403.5,564.3,403.7z"/>
<path class="st3" d="M357.8,555.3c19.5,0.3,33.4,15.6,33.2,36.4c-0.3,20.6-14.9,35.4-34.6,35c-19.3-0.3-33.5-15.9-33.2-36.4
	C323.5,570,338.3,554.9,357.8,555.3z"/>
<path class="st0" d="M1056.2,360.5c-14.2,40.3-28.2,80-42.3,119.7c-0.7,1.9-1.9,3.6-3.3,6.2c-12.5-4.3-25-8.3-38.1-8.9
	c-6.8-0.3-13.7-0.3-20.4,1.7c-12.5,3.7-18.8,10.3-19.9,21.6c-1.3,13.2,3.8,23.1,15.3,28.5c14.8,7.1,29.9,4.7,44.8,0.3
	c6-1.8,11.6-4.7,19.1-7.8c15,44.9,29.9,89.7,45.2,135.6c-22.3,19.4-47.9,30.7-76.5,35.2c-71.5,11.2-113-24.6-135.3-72.8
	c-37.5-81.1-36.8-163.4,11.5-240.4C900.3,309.1,995.1,301,1056.2,360.5z"/>
<path class="st0" d="M1782.4,493.3c-5.4-28.7-17-54.3-38.7-74.5c-22.5-20.9-51.8-22.7-76.8-5.2c-3.8,2.6-6.4,7-11.3,8.3
	c-3.7-5.2,0.4-11.6-3.5-17.2c-32.1,0-64.5,0-97.7,0c0,121.3,0,241.9,0,363.1c33.3,0,65.7,0,99.3,0c0-29.1,0-57.5,0-88
	c16.5,7.3,30.7,12.8,46.6,11c30.1-3.6,49.8-21.7,63.6-46.9C1789.9,596.4,1792.2,545.5,1782.4,493.3z M1686.8,575.5
	c-5.8,14.2-16.6,15.4-32.8,4.1c0-14.6,0.1-29.9,0-45.2c-0.1-9.4,5.3-14.8,13.5-17c9.1-2.5,15.2,2.3,18.8,10.4
	C1693.4,543.7,1693.3,559.8,1686.8,575.5z"/>
<path class="st0" d="M1269.1,462.4c-12.1-29.1-31.9-52.4-64-61.4c-43.5-12.2-87.5,8.7-111.2,51.9c-15.7,28.5-21.1,59.3-20.3,87
	c0.2,44.8,7.5,83.1,32.4,116.2c17.4,23.2,40.3,36.5,70,36.7c43.3,0.3,78.7-23.1,95.1-65.6C1292.2,572.3,1291.6,516.7,1269.1,462.4z
	 M1195.4,565.4c-8.7,13.5-23.5,13.7-31.6-0.2c-8.5-14.6-8.5-30.3,0.1-44.9c8.3-14,25.1-13,32.6,1.5c3.4,6.6,5.1,13.7,4.3,21.3
	C1201.7,551.1,1199.8,558.7,1195.4,565.4z"/>
<path class="st0" d="M1519.2,502.9c-4.2-24.8-13.3-47.7-28.6-67.8c-30.6-40.3-81.7-49.4-123.7-21.9c-19.1,12.5-32,30.4-41.2,51
	c-16.7,37.4-16.9,76.7-11.9,116.4c3.6,28.2,13,54.2,30.7,76.9c17.9,23,41,35.7,75.7,35.3c37.4-0.1,71.9-24,88.7-65.5
	C1525.2,587,1526.4,545.2,1519.2,502.9z M1432.8,565.7c-8.4,12.7-22.3,12.9-31,0.7c-8.7-12.2-8.4-35.8,0.6-47.7
	c8.8-11.6,23.8-10.8,31.1,1.8c4,6.9,5.4,14.7,5.1,22.9C1439.1,551.4,1437.3,559,1432.8,565.7z"/>
<path class="st4" d="M210.4,474.9c-19.4-0.3-33.4-15.6-33.1-36.3c0.3-20.2,15.3-35.3,34.7-34.9c13.5,0.3,24.5,8.1,29.8,19.9h36
	c-6.8-31.4-33.7-54.2-66.7-54.1c-38,0-68.3,31.2-68.3,70.2c0,39.1,30.3,70,68.5,70c32.9,0,59.5-22.7,66.4-54.1h-35.9
	C236.5,467.6,224.9,475.1,210.4,474.9z"/>
<rect x="439.1" y="374.9" class="st5" width="44.1" height="285.8"/>
</svg>
