<svg xmlns="http://www.w3.org/2000/svg" width="150" height="123" viewBox="0 0 150 123"><g fill="none" fill-rule="evenodd"><path fill="#FFF" d="M62.605 77.68c-.878.663-7.551 4.842-8.338 5.242-.791.403-1.112-.136-1.234-.472-.872-2.368-.467-5.467 2.448-7.214 2.9-1.736 5.648-.97 7.25 1.162.104.127.602.758-.126 1.283M74 78.684c-.986-1.664-1.845-3.659-2.451-6.067-.083-.328-.137-.648-.209-.973-3.02-4.399-7.937-7.94-15.132-6.185C49.847 67.007 45.81 70.755 44 75.669a29.368 29.368 0 013.38 8.672c.9 4.09.99 8.065.309 11.815 4.221 5.14 10.683 7.867 16.836 6.488 6.601-1.479 9.23-4.268 9.21-7.58-.011-1.614-.123-2.95-.35-4.693-.258-1.966-2.39-2.012-3.601-.827-2.284 2.231-3.452 2.79-5.56 3.092-5.195.738-6.76-2.071-6.76-2.071s13.733-8.428 14.62-9.046c1.172-.793 1.769-1.734 1.916-2.835"/><path fill="#000" d="M16.983 78.995l.054.019-.074-.028z"/><path fill="#FFF" d="M30.778 66.574c-.016-.007-6.605-4.079-16.265-1.966-8.476 1.911-13.018 7.268-13.83 8.087-1.017 1.028-.897 3.137.353 5.584 2.03 2.999 3.547 3.901 4.974 2.95.723-.48 4.468-4.274 9.795-5.662.12-.032.795-.181 1-.219 3.713-.674 7.486.093 10.683 2.193 3.37 2.213 5.706 5.644 6.562 9.657 1.636 7.624-3.008 15.862-10.19 18.407a.907.907 0 01-.807-.114.893.893 0 01-.376-.57l-3.48-17.292c-.792-4.28.664-6.153-1.304-6.764-.806-.298-2.094-.262-4.779.691-1.908.684-3.081 1.53-3.803 2.373-.991 1.018-.922 1.97-.861 2.563.093.797.304 1.741.435 2.36.237 1.142 4.708 22.302 5.255 25.279.544 3 1.753 3.818 3.586 3.869 5.86-.144 11.476-2.362 13.958-3.892 3.7-2.285 7.031-5.125 9.397-8.885 3.845-6.1 4.737-13.29 3.216-20.383-1.706-7.955-6.448-14.547-13.52-18.266"/><path fill="#3E3D3C" d="M106 49.038v-.076.076z"/><path fill="#D83938" d="M128.21 62.508c-2.866-1.504-4.876-3.227-6.971-5.057-1.804-1.578-3.638-3.515-4.993-5.503-.372-.545-1.477-2.34-2.438-3.455-.402-.482-1.59-1.55-3.065-1.49-3.86.263-3.743 4.202-3.743 4.202-.036 2.095 2.082 4.741 3.565 6.192 4.048 3.952 9.177 6.37 14.631 7.295 1.272.211 2.851.506 4.074.12 1.84-.579-.284-1.895-1.06-2.304"/><path fill="#FFF" d="M114.116 85.101c-2.951.514-7.151-1.778-8.023-7.18-.873-5.398 2.374-8.99 5.324-9.506 2.95-.513 7.147 1.782 8.022 7.18.876 5.4-2.372 8.991-5.323 9.506m15.605-11.296a21.066 21.066 0 00-2.425-6.978c-.823-.037-1.631-.177-2.347-.303l-.167-.029a28.525 28.525 0 01-11.298-4.62 27.671 27.671 0 01-4.97-3.875c-5.051 1.29-9.034 5.034-11.192 9.9-.42.745-.728 1.636-.966 2.625-.024.085-.06.165-.084.25l.031-.01c-.14.632-.221 1.348-.303 2.065.12-.115.231-.217.364-.347 1.128-1.106 2.766-1.532 4.07-1.066 1.128.406 1.871 1.411 2.04 2.76.1.817.106.901.122 1.116.016.249.051.692.294 2.96.423 4.01-2 6.414-4.903 7.98.317.603.653 1.164 1.02 1.639 3.791 5.747 10.196 9.054 16.834 7.9 9.364-1.634 15.576-11.468 13.88-21.967"/><path fill="#FFF" d="M100.96 78.17c-.46-4.18-.207-2.362-.43-4.108-.275-2.135-2.55-1.895-3.714-.783a21.542 21.542 0 01-1.625 1.422c-1.216.941-2.074 1.23-3.59 1.606-7.634 1.9-9.528-6.394-9.528-6.394-1.48-5.107.431-10.13 4.404-11.554 0 0 3.004-1.115 5.52.28 2.834 1.573 3.6-.654 3.49-2.104-.17-2.372-.194-2.467-.494-4.256-.678-4.113-6.318-5.182-11.736-3.546-9.785 2.958-14.352 12.406-11.34 24.44 3.184 12.715 14.01 15.261 20.68 13.176 1.573-.492 2.952-1.05 4.143-1.68 2.89-1.533 4.541-3.553 4.22-6.5"/><path fill="#FFF" d="M93.131.087c-15.997-.861-31.378 4.72-43.29 15.711-11.91 10.992-18.931 26.08-19.769 42.484a63.36 63.36 0 00-.038 5.135c.716.325 1.197.594 1.384.705.309.164.606.342.908.516a60.871 60.871 0 01-.002-6.235c1.668-32.644 28.84-57.72 60.69-56.01 31.847 1.71 56.317 29.562 54.65 62.206-1.671 32.64-28.846 57.718-60.696 56.009-16.231-.873-30.535-8.545-40.449-20.17-.27.808-.576 1.604-.922 2.384 10.271 11.594 24.825 19.21 41.253 20.092 1.065.058 2.12.086 3.174.086 31.658-.003 58.214-25.509 59.893-58.28C151.646 30.853 126.172 1.86 93.131.086"/></g></svg>