<svg width="208" height="29" viewBox="0 0 208 29" fill="none" xmlns="http://www.w3.org/2000/svg">
<path d="M53.8847 4.80959C55.1733 4.80959 56.1756 3.80583 56.1756 2.51527C56.1756 1.22471 55.1733 0.220947 53.8847 0.220947C52.596 0.220947 51.5938 1.22471 51.5938 2.51527C51.5938 3.80583 52.596 4.80959 53.8847 4.80959ZM55.8892 6.96052H52.0233V22.1604H55.8892V6.96052Z" fill="black"/>
<path d="M79.8005 6.96057H75.9346V15.4209C75.9346 19.7227 78.7982 22.4473 83.0937 22.5906C87.3892 22.5906 90.2529 19.7227 90.2529 15.5643V6.96057H86.3869V15.2775C86.3869 17.4284 85.0983 19.0058 83.0937 19.0058C81.2323 19.0058 79.8005 17.5718 79.8005 15.2775V6.96057Z" fill="black"/>
<path d="M104.141 22.1603H108.007V6.96046H104.141V8.53781C102.996 7.24725 101.564 6.53027 99.5592 6.53027C95.4069 6.53027 92.2568 9.97176 92.2568 14.5604C92.2568 19.2924 95.55 22.5905 99.5592 22.5905C101.564 22.5905 103.139 21.7302 104.141 20.4396V22.1603ZM100.132 19.0057C97.841 19.0057 96.1228 16.9981 96.1228 14.5604C96.1228 12.1227 97.841 10.1152 100.132 10.1152C102.423 10.1152 104.141 11.9793 104.141 14.5604C104.141 16.9981 102.423 19.0057 100.132 19.0057Z" fill="black"/>
<path d="M114.452 0.363647H110.586V22.3031H114.452V0.363647Z" fill="black"/>
<path d="M0.0483398 22.1604H7.49386C14.5098 22.1604 19.6644 17.5718 19.6644 11.2624C19.6644 4.80962 14.5098 0.220978 7.35068 0.220978H0.0483398V22.1604ZM7.20749 4.37944C11.9325 4.37944 14.9394 7.10395 14.9394 11.2624C14.9394 15.4209 11.7894 18.1454 7.20749 18.1454H4.34383V4.37944H7.20749Z" fill="black"/>
<path d="M41.9998 11.1185C41.9998 10.2581 42.8589 9.68452 44.1476 9.68452C45.5794 9.68452 46.8681 10.1147 47.8703 11.4053L50.0181 9.11094C48.8726 7.53359 46.7249 6.67322 44.0044 6.67322C40.1384 6.67322 38.1339 8.82415 38.1339 11.2619C38.1339 16.7109 46.2953 15.4203 46.2953 18.1448C46.2953 19.1486 45.5794 19.7222 44.0044 19.7222C42.143 19.7222 40.7112 19.1486 39.5657 17.858L37.418 20.2958C38.7066 21.8731 40.8544 22.8769 43.8612 22.8769C48.0135 22.8769 50.1613 20.7259 50.1613 18.1448C50.1613 12.1222 41.9998 13.6996 41.9998 11.1185Z" fill="black"/>
<path d="M29.4005 22.5907C31.9778 22.5907 34.1255 21.5869 35.271 20.1529L33.2664 17.5718C32.4073 18.4322 31.1187 19.1492 29.5437 19.1492C27.2528 19.1492 25.5346 17.5718 25.2482 15.5643H36.5597C36.5597 15.2775 36.7028 14.7039 36.7028 14.2737C36.7028 9.82849 33.4096 6.5304 29.1141 6.5304C24.6755 6.5304 21.3822 10.1153 21.3822 14.5605C21.2391 19.0058 24.6755 22.5907 29.4005 22.5907ZM28.9709 9.82848C30.8323 9.82848 32.121 10.9756 32.5505 13.1266H25.2482C25.8209 11.119 27.1096 9.82848 28.9709 9.82848Z" fill="black"/>
<path d="M60.9009 23.7384L58.8963 26.7497C60.3282 28.0402 62.7623 28.7572 65.4827 28.7572C69.2055 28.7572 73.3578 27.0365 73.3578 21.0139V6.81776H69.4919V8.25171C68.3464 7.10455 66.9146 6.38757 64.91 6.38757C61.0441 6.38757 57.894 9.54227 57.894 13.9875C57.894 18.5762 61.0441 21.7309 64.91 21.7309C66.9146 21.7309 68.4896 21.0139 69.4919 19.7233V21.0139C69.4919 23.595 67.9169 25.0289 65.3396 25.0289C63.1918 25.3157 61.6168 24.312 60.9009 23.7384ZM65.6259 18.2894C63.335 18.2894 61.76 16.5686 61.76 14.2743C61.76 11.98 63.4782 10.2592 65.6259 10.2592C67.9169 10.2592 69.4919 12.1234 69.4919 14.2743C69.4919 16.4252 67.9169 18.2894 65.6259 18.2894Z" fill="black"/>
<path d="M118.603 22.3036C119.892 22.3036 120.894 21.2998 120.894 20.0093C120.894 18.7187 119.892 17.715 118.603 17.715C117.315 17.715 116.312 18.7187 116.312 20.0093C116.312 21.2998 117.458 22.3036 118.603 22.3036Z" fill="black"/>
<path d="M128.893 11.2539C128.893 4.76063 133.412 0.309087 139.236 0.309087C145.26 0.309087 148.674 4.02429 149.076 9.44647L146.264 9.58035C146.03 5.6978 143.587 2.78589 139.236 2.78589C134.951 2.78589 131.872 6.06597 131.872 11.2539C131.872 16.4418 134.951 19.7218 139.236 19.7218C143.587 19.7218 146.03 16.8099 146.264 12.9274L149.076 13.0613C148.674 18.4834 145.26 22.1986 139.236 22.1986C133.412 22.1986 128.893 17.7471 128.893 11.2539ZM152.156 0.710729H155.068V19.3871H166.816V21.797H152.156V0.710729ZM177.125 22.1986C172.372 22.1986 168.59 19.8892 168.59 13.7307V0.710729H171.469V13.7641C171.469 17.7806 173.444 19.7553 177.125 19.7553C180.807 19.7553 182.849 17.7806 182.849 13.7976V0.710729H185.694V13.7307C185.694 19.8892 181.878 22.1986 177.125 22.1986ZM206.051 16.0066C206.051 19.6549 203.373 21.797 198.453 21.797H189.483V0.710729H198.085C203.306 0.710729 205.448 2.98671 205.448 6.33373C205.448 8.77706 203.708 10.4506 201.465 10.8522C204.042 11.2873 206.051 12.9943 206.051 16.0066ZM198.386 12.0571H192.294V19.4206H198.386C201.532 19.4206 203.172 18.0483 203.172 15.7723C203.172 13.4629 201.532 12.0571 198.386 12.0571ZM192.294 3.08712V9.81464H198.185C201.231 9.81464 202.536 8.5093 202.536 6.46761C202.536 4.4594 201.231 3.08712 198.185 3.08712H192.294Z" fill="black"/>
</svg>
