<?xml version="1.0" encoding="UTF-8"?>
<svg id="a" data-name="Livello 1" xmlns="http://www.w3.org/2000/svg" viewBox="0 0 594.2754 77.6235">
  <defs>
    <style>
      .b {
        fill: #007632;
      }

      .c {
        fill: #fff;
      }

      .d {
        fill: #e30613;
      }
    </style>
  </defs>
  <rect class="c" width="594.2754" height="77.6235"/>
  <rect class="d" x="4.5845" y="4.5889" width="482.4546" height="68.4468"/>
  <path class="c" d="M266.9405,59.981c7.039,0,12.7246-5.7207,12.7246-12.7598s-5.6856-12.7397-12.7246-12.7397h-25.9346c-2.1494,0-3.9014-1.7266-3.9014-3.875s1.7325-3.8916,3.8809-3.8916h37.3086c0-4.9961-4.0449-9.0948-9.041-9.0948h-28.2783c-7.1758,0-12.9551,5.8106-12.9551,12.9864s5.8193,12.9877,12.9951,12.9877h25.9258c2.0117,0,3.622,1.6329,3.622,3.6446s-1.6103,3.6328-3.622,3.6328h-38.959c0,5.0371,4.0254,9.1094,9.0644,9.1094h29.8946Z"/>
  <path class="c" d="M383.5733,17.6074c3.0908,0,5.8008,1.7832,7.46,4.128l21.8525,31.1831c.4912,.7285,.75,1.5625,.75,2.5078,0,2.5176-2.041,4.5566-4.5586,4.5566-1.5732,0-2.9014-.7109-3.7207-1.9219l-5.0547-7.1738h-33.5185l-5.0088,7.1367c-.8223,1.1973-2.1856,1.959-3.7471,1.959-2.5176,0-4.5596-2.039-4.5596-4.5566,0-.9453,.3106-1.8516,.8018-2.5781l21.8154-31.1031c1.6582-2.3457,4.3965-4.1377,7.4883-4.1377Zm-10.6816,24.5904h21.3154l-9.8819-14.1499c-.1572-.2696-.5527-.752-.7519-.752-.2412,0-.6318,.4902-.7861,.7695l-9.8955,14.1324Z"/>
  <path class="c" d="M336.6397,17.6377c7.1504,0,12.9463,5.8262,12.9463,12.9766s-5.749,12.9799-12.8985,12.9799h-18.3027c-5.0273,0-9.1484-4.0629-9.1484-9.0893l27.4511-.0088c2.1534,0,3.8526-1.7275,3.8526-3.8818s-1.6992-3.9092-3.8526-3.9092h-30.2119v28.2661c0,2.7773-2.2168,5.0312-4.9951,5.0312s-5.0176-2.2539-5.0176-5.0312V26.7363c0-5.0263,4.0616-9.1162,9.0879-9.1162l31.0889,.0176Z"/>
  <path class="c" d="M472.3565,42.3774c4.3906-2.0781,7.4473-6.5766,7.4473-11.7631,0-7.1504-5.795-12.9639-12.9454-12.9639h-30.5664c-5.0263,0-9.0878,4.0596-9.0693,9.0859v28.229c-.0185,2.7793,2.2412,5.0371,5.0205,5.0371s4.9277-2.2539,4.9277-5.0312V26.7051h28.4327c2.1533,0,3.8525,1.7539,3.8525,3.9092s-1.6992,3.8857-3.8525,3.8857h-26.0948c0,5.0274,4.1211,9.104,9.1475,9.104l12.4014-.0039,9.9414,14.2637c1.5761,2.291,4.7207,2.8496,7,1.2597,2.2793-1.5898,2.7519-4.6679,1.1621-6.9453l-6.8047-9.8008Z"/>
  <g>
    <path class="c" d="M96.0196,60.0278c-5.7041,0-10.3281-4.5976-10.3281-10.3027V27.9463c0-5.7041,4.624-10.3506,10.3281-10.3506h25.5498c11.7158,0,21.2129,9.4756,21.2129,21.1904s-9.4971,21.2417-21.2129,21.2417h-25.5498Zm25.5498-3.1211c9.9834,0,18.0762-8.1367,18.0762-18.1206s-8.0928-18.0703-18.0762-18.0703h-25.5498c-3.9898,0-7.2246,3.2403-7.2246,7.2305v21.7788c0,3.9902,3.2348,7.1816,7.2246,7.1816h25.5498Z"/>
    <path class="c" d="M96.0196,53.7759c-2.2656,0-4.1035-1.7832-4.1035-4.0508V27.9463c0-2.2656,1.8379-4.0986,4.1035-4.0986h25.5498c8.2471,0,14.9336,6.6914,14.9336,14.9384s-6.6865,14.9898-14.9336,14.9898h-25.5498Zm25.5498-3.1094c6.5205,0,11.8056-5.3594,11.8056-11.8804s-5.2851-11.83-11.8056-11.83h-25.5498c-.5606,0-1.0147,.4297-1.0147,.9902v21.7788c0,.5606,.4541,.9414,1.0147,.9414h25.5498Z"/>
  </g>
  <path class="c" d="M169.0469,60.0278c-5.7051,0-10.3237-4.5976-10.3237-10.3027V27.9463c0-5.7041,4.6245-10.3506,10.3286-10.3506h32.169c5.371,0,9.7802,4.1182,10.2753,9.3623l-42.4443-.0019c-.5605,0-1.0146,.4297-1.0146,.9902l-.0059,6.1973h0l38.8555,.0009c2.5869,0,4.6845,2.0967,4.6845,4.6836s-2.0976,4.6763-4.6845,4.6763l-38.8555-.0137h0l.0059,6.2344c0,.5606,.4511,.9414,1.0107,.9414h42.4385c-.4961,5.2442-4.9043,9.3613-10.2764,9.3613h-32.1631Zm-4.0986-10.3027l-.0098-9.3281v.0019l41.9483-.0019c.8632,0,1.5634-.7056,1.5634-1.5689,0-.8642-.7002-1.5634-1.5634-1.5634l-41.9483,.0048h0l.0098-9.3232c0-2.2656,1.8369-4.0986,4.1035-4.0986l38.0869-.0078c-1.3056-1.8819-3.456-3.1241-5.9179-3.1241h-32.169c-3.9897,0-7.2246,3.2403-7.2246,7.2305v21.7788c0,3.9902,3.2295,7.1816,7.2197,7.1816l32.1631,.002c2.4629,0,4.6133-1.1855,5.918-3.0684h-38.0811c-2.2666,0-4.0986-1.8476-4.0986-4.1152Z"/>
  <path class="b" d="M540.5918,3.251c-20.1699,0-36.5214,16.3506-36.5214,36.519,0,6.543,1.5429,12.7813,4.7295,17.9883,3.3271,5.4356,8.1689,9.8691,13.9677,12.6074,5.4141,2.5547,11.4688,3.9981,17.8545,3.9981,6.3594,0,12.3858-1.4414,17.7842-3.9766,5.8018-2.7265,10.6504-7.1933,13.9756-12.6289,3.1885-5.207,4.7295-11.4453,4.7295-17.9883,0-20.1684-16.3506-36.519-36.5196-36.519Zm23.4053,53.8159c-3.0586,4.1484-8.0312,6.8809-13.581,6.8809-3.3789,0-6.1934-2.7207-6.1934-6.0996v-5.3594h19.4014c-8.3125-9.0176-20.3643-28.6236-23.0323-40.6753-2.6689,12.0517-14.7197,31.6577-23.0322,40.6753h19.4004v5.3594c0,3.3789-2.8144,6.0996-6.1914,6.0996-5.5508,0-10.5234-2.7325-13.582-6.8809-3.5723-4.8457-5.9043-10.8145-5.9043-17.2969,0-16.0835,13.2246-29.1245,29.3095-29.1245s29.294,13.041,29.294,29.1245c0,6.4824-2.3164,12.4512-5.8887,17.2969Z"/>
</svg>