<svg xmlns="http://www.w3.org/2000/svg" xmlns:xlink="http://www.w3.org/1999/xlink" viewBox="0 0 1267.44828 675.86207"><defs><style>.a{clip-path:url(#a);}.b{fill:none;}.c{isolation:isolate;}.d{clip-path:url(#b);}.e{clip-path:url(#c);}.f{fill:url(#d);}.g{mask:url(#e);}.h{clip-path:url(#f);}.i{clip-path:url(#g);}.j{fill:url(#h);}.k{fill:#e20613;}.l{fill:#1d1d1b;}.m{fill:#202b51;}</style><clipPath id="a"><rect class="b" x="168.08411" y="125.61997" width="687.64417" height="317.63005"/></clipPath><clipPath id="b"><rect class="b" x="168.08411" y="125.62753" width="687.71929" height="320.10662"/></clipPath><clipPath id="c"><path class="b" d="M168.08411,125.62753l.06013,61.20991L796.24446,442.90481s19.49768.3302,20.30822-.72048c13.08869,3.54232,31.9634-1.88373,37.05935-14.51452,7.40734-14.1092-5.65868-25.997-18.31954-31.1078C822.69187,391.47367,168.08411,125.62753,168.08411,125.62753Z"/></clipPath><linearGradient id="d" x1="339.97054" y1="818.58017" x2="347.47545" y2="818.58017" gradientTransform="matrix(-91.63095, 0, 0, 91.63095, 32007.59024, -74721.60254)" gradientUnits="userSpaceOnUse"><stop offset="0" stop-color="#fff"/><stop offset="0.55" stop-color="#fff"/><stop offset="0.76267" stop-color="#7b7b7a"/><stop offset="0.92" stop-color="#1d1d1b"/><stop offset="1" stop-color="#1d1d1b"/></linearGradient><mask id="e" x="161.80814" y="63.551" width="692.93537" height="320.11418" maskUnits="userSpaceOnUse"><g transform="translate(-6.27586 -62.06897)"><rect x="168.08411" y="125.61997" width="687.63684" height="317.63005"/><g class="a"><g class="c"><g class="d"><g class="e"><rect class="f" x="168.084" y="125.62753" width="692.93537" height="320.09918"/></g></g></g></g></g></mask><clipPath id="f" transform="translate(-6.27586 -62.06897)"><rect class="b" x="168.08411" y="125.62753" width="687.64417" height="317.62249"/></clipPath><clipPath id="g" transform="translate(-6.27586 -62.06897)"><path class="b" d="M168.08411,125.62753l.06013,61.20991L796.24446,442.90481s19.49768.3302,20.30822-.72048a32.64151,32.64151,0,0,0,8.15787,1.06568h.683c11.59518-.10506,24.27092-5.56867,28.29363-15.55014a17.25092,17.25092,0,0,0,2.04113-8.00024v-.29271c0-.12757,0-.25514-.00733-.38277-.30782-10.19911-10.46193-18.43949-20.42846-22.46214C822.69187,391.47367,168.08411,125.62753,168.08411,125.62753Z"/></clipPath><linearGradient id="h" x1="337.5243" y1="827.43359" x2="345.02921" y2="827.43359" gradientTransform="matrix(91.62586, 0, 0, -91.62586, -30764.14662, 76036.68571)" gradientUnits="userSpaceOnUse"><stop offset="0" stop-color="#fad9d2"/><stop offset="0.2" stop-color="#fad9d2"/><stop offset="0.95" stop-color="#f18e7f"/><stop offset="1" stop-color="#f18e7f"/></linearGradient></defs><title>esselunga-logo-freelogovectors.net</title><g class="g"><g class="h"><g class="i"><rect class="j" x="161.80825" y="63.55868" width="687.64417" height="317.62243"/></g></g></g><path class="k" d="M855.1383,423.98646a21.32186,21.32186,0,0,0,.57784-4.9082c-1.31326,11.8277-14.06413,21.509-26.40962,21.509H452.56787l-3.30218,3.28718h.00756l-35.85854,35.84336v70.11083l35.98611,35.38559H637.75125v31.80583H415.07336l-1.67354,3.31712h.01489V674.38H669.20437l35.911-35.88843v.05251l3.29462-3.32468V565.94921l-37.95235-37.93729H484.19345V497.83468h344.415c13.62141,0,27.09282-11.94777,27.09282-25.58419,0-13.62891.02244-53.14222.02244-53.14222a20.61939,20.61939,0,0,1-.5854,4.87819m-.01489.075c-.02268.09757-.06757.18764-.09024.2852.02267-.09756.06756-.18763.09024-.2852" transform="translate(-6.27586 -62.06897)"/><path class="l" d="M452.56718,440.588H829.30561c12.35327,0,25.09658-9.68128,26.40229-21.509,0,13.62892-13.156,24.7587-26.40962,24.8037H449.265Z" transform="translate(-6.27586 -62.06897)"/><polygon class="l" points="474.549 435.748 474.549 469.205 662.854 469.205 698.833 505.184 698.833 576.473 702.135 573.148 702.135 503.885 664.182 465.941 477.918 465.941 477.918 435.748 474.549 435.748"/><polygon class="l" points="408.799 554.949 631.485 554.949 631.485 558.266 407.125 558.266 408.799 554.949"/><path class="m" d="M1229.296,401.21885h-47.40081l-5.76381-22.23707h-39.821l-6.19919,22.23707h-47.40081l35.7683-126.07489a26.80791,26.80791,0,0,1,25.88445-19.85039h25.54662a26.80792,26.80792,0,0,1,25.88445,19.85039Zm-84.24235-56.94724h22.6496l-10.942-44.36145Z" transform="translate(-6.27586 -62.06897)"/><path class="m" d="M1088.04863,346.96736a57.85275,57.85275,0,0,1-57.84785,57.8478h-18.85226a57.82393,57.82393,0,0,1-57.82541-57.8478V314.39617a57.82873,57.82873,0,0,1,57.82541-57.84785h53.63v40.33141l-44.12131-.00756a19.77957,19.77957,0,0,0-19.76793,19.7905V343.365a19.76417,19.76417,0,1,0,39.52831,0V311.35669h47.461Z" transform="translate(-6.27586 -62.06897)"/><path class="m" d="M868.81468,265.50013c-3.33218-5.89126-10.97221-10.28912-18.9125-10.28912H838.42724a21.19374,21.19374,0,0,0-21.19388,21.18632V401.21879H864.3417v-61.36l29.71935,52.86453c3.62488,6.34165,9.41869,10.89709,17.35875,10.89709h11.4676a21.20021,21.20021,0,0,0,21.20145-21.20883V257.97278h-46.8832v57.58515Z" transform="translate(-6.27586 -62.06897)"/><path class="m" d="M578.28026,368.46065A32.785,32.785,0,0,0,611.084,401.21959h65.01516v-38.8904H625.37348V257.876H578.28026Z" transform="translate(-6.27586 -62.06897)"/><path class="m" d="M74.56255,401.26609a32.82019,32.82019,0,0,1-32.83395-32.8264v-77.7808a32.82988,32.82988,0,0,1,32.834-32.8265h84.46016v38.67276h-69.728v14.66466H146.407v36.45127H89.29466v14.582h69.72805v39.048Z" transform="translate(-6.27586 -62.06897)"/><path class="m" d="M341.72283,257.92847a32.87167,32.87167,0,0,0-32.81895,32.92407v24.14324a32.88125,32.88125,0,0,0,32.81895,32.924l51.37839-.0075v15.24245H309.44416v38.01235h98.37417a32.86687,32.86687,0,0,0,32.80394-32.91652V344.09978a32.86525,32.86525,0,0,0-32.80394-32.93146H356.38725V295.94837H440.705V257.951Z" transform="translate(-6.27586 -62.06897)"/><path class="m" d="M483.64721,401.26609a32.81708,32.81708,0,0,1-32.81906-32.8264v-77.7808a32.82678,32.82678,0,0,1,32.81906-32.8265h84.47505v38.67276H498.40164v14.66466h57.09v36.45127h-57.09v14.582h69.72062v39.048Z" transform="translate(-6.27586 -62.06897)"/><path class="m" d="M807.08085,257.80914H759.9274l.09,89.30836a15.50379,15.50379,0,0,1-15.45252,15.52764h.00755a15.4927,15.4927,0,0,1-15.44519-15.52764l-.03-89.30836H681.794l-.06023,92.62553a54.26291,54.26291,0,0,0,54.11784,54.41055h17.16385a54.29,54.29,0,0,0,54.1554-54.41055Z" transform="translate(-6.27586 -62.06897)"/><path class="m" d="M200.32293,257.92847a32.88127,32.88127,0,0,0-32.84151,32.92407v24.14324a32.89086,32.89086,0,0,0,32.84151,32.924l51.37095-.0075v15.24245H168.02182v38.01235H266.366a32.878,32.878,0,0,0,32.834-32.91652V344.09978a32.87642,32.87642,0,0,0-32.834-32.93146H214.97247V295.94837h84.28758V257.951Z" transform="translate(-6.27586 -62.06897)"/><path class="m" d="M1216.3816,263.55714h8.826c4.623,0,5.47843,3.42975,5.47843,4.92326a4.17742,4.17742,0,0,1-2.68677,4.15017c1.40351.638,2.20649,1.17081,2.20649,4.43542,0,2.5442,0,3.17461.75809,3.45975v.45783h-4.00026a11.09428,11.09428,0,0,1-.40516-3.51231c0-2.38662-.15757-3.30217-2.8519-3.30217h-3.76v6.81448h-3.56487Zm7.85784,7.67748c1.88355,0,2.79922-.66041,2.79922-2.394,0-.90067-.42027-2.274-2.54408-2.274h-4.54811v4.668Z" transform="translate(-6.27586 -62.06897)"/><path class="m" d="M1207.90171,272.13826a15.18616,15.18616,0,1,1,15.19,15.1975,15.19155,15.19155,0,0,1-15.19-15.1975m15.19,13.47129a13.46751,13.46751,0,1,0-13.4714-13.47129,13.46337,13.46337,0,0,0,13.4714,13.47129" transform="translate(-6.27586 -62.06897)"/><rect class="b" x="35.44828" y="63.551" width="1196.55172" height="548.75852"/><rect class="b" width="1267.44828" height="675.86207"/></svg>