<svg width="150" height="26" viewBox="0 0 150 26" fill="none" xmlns="http://www.w3.org/2000/svg">
<path d="M39.5066 8.48723C39.5066 7.13246 40.184 6.69415 41.1204 6.69415H41.5388C42.515 6.69415 43.1924 7.11254 43.1924 8.48723V17.1737C43.1924 20.2817 44.7663 22.1146 47.4958 22.1146C49.7272 22.1146 51.5003 20.8395 52.4367 18.9468V18.9269V8.48723C52.4367 7.13246 53.1141 6.69415 54.0505 6.69415H54.4688C55.4451 6.69415 56.1225 7.11254 56.1225 8.48723V24.5253C56.1225 24.8042 55.5248 25.0433 54.8075 25.0433C53.6918 25.0433 52.5164 24.5253 52.4566 22.1943C51.1815 24.0272 49.2291 25.3421 46.4598 25.3421C41.6982 25.3421 39.5265 22.1146 39.5265 17.6319V8.48723H39.5066ZM58.8718 23.2901C58.8718 24.6448 59.5492 25.0433 60.5255 25.0433H60.9438C61.8802 25.0433 62.5975 24.6249 62.5975 23.2901V16.9545C62.5975 12.7906 63.753 9.96153 66.6817 9.96153C67.6978 9.96153 68.3951 10.3002 68.9728 10.7385C69.0525 10.8182 70.0885 10.2604 70.0885 8.82592C70.0885 7.33169 69.0127 6.43515 67.1399 6.43515C64.8488 6.43515 63.3545 7.63054 62.5775 9.842C62.5377 7.29184 61.3423 6.69415 60.2465 6.69415C59.4895 6.69415 58.8918 6.9133 58.8918 7.21215V23.2901H58.8718ZM79.552 6.43515C73.9735 6.43515 70.0885 10.36 70.0885 15.8787C70.0885 21.4571 73.9536 25.382 79.5321 25.382C85.0707 25.382 88.9756 21.4571 88.9756 15.9385C88.9557 10.3998 85.0508 6.43515 79.552 6.43515ZM79.5121 22.3537C76.0655 22.3537 73.4755 19.5844 73.4755 15.8787C73.4755 12.173 76.0655 9.48338 79.5121 9.48338C82.9987 9.48338 85.509 12.2128 85.509 15.9584C85.509 19.6043 82.9588 22.3537 79.5121 22.3537ZM90.9878 23.2901C90.9878 24.6448 91.6652 25.0433 92.6414 25.0433H93.0598C93.9962 25.0433 94.7134 24.6249 94.7134 23.2901V12.8305C95.61 10.9577 97.4031 9.68261 99.7739 9.68261C102.404 9.68261 103.938 11.5554 103.938 14.5837V23.2701C103.938 24.6249 104.615 25.0234 105.591 25.0234H106.01C106.946 25.0234 107.663 24.605 107.663 23.2701V14.1454C107.663 9.68261 105.452 6.43515 100.69 6.43515C97.9211 6.43515 95.9287 7.78992 94.6935 9.62284C94.574 7.27192 93.4583 6.69415 92.3824 6.69415C91.6254 6.69415 91.0277 6.93323 91.0277 7.21215V23.2901H90.9878ZM110.214 2.09192C110.214 3.40684 111.03 4.144 112.425 4.144C113.84 4.144 114.637 3.42677 114.637 2.09192C114.637 0.737153 113.84 0 112.465 0C111.03 0 110.214 0.737153 110.214 2.09192ZM110.552 23.2901C110.552 24.6448 111.27 25.0433 112.246 25.0433H112.624C113.601 25.0433 114.278 24.6249 114.278 23.2901V8.48723C114.278 7.09261 113.601 6.69415 112.624 6.69415H112.246C111.27 6.69415 110.552 7.15238 110.552 8.48723V23.2901ZM125.893 6.43515C120.494 6.43515 116.529 10.3998 116.529 15.8787C116.529 21.4173 120.454 25.382 125.893 25.382C131.213 25.382 133.603 22.0947 133.603 20.4411C133.603 18.8273 131.511 18.5683 131.392 18.7476C130.575 20.7399 129.001 22.274 125.953 22.274C122.546 22.274 120.036 19.5844 120.036 15.8787C120.036 12.2128 122.586 9.54315 125.953 9.54315C129.021 9.54315 130.555 11.0772 131.392 13.0695C131.511 13.2488 133.603 12.95 133.603 11.4159C133.603 9.72246 131.252 6.43515 125.893 6.43515ZM136.333 19.8235C136.134 19.8035 134.898 20.4012 134.898 21.5169C134.898 23.2303 137.488 25.3421 142.509 25.3421C147.151 25.3421 150 23.1307 150 19.684C150 15.799 146.135 14.9622 143.366 14.3645C140.437 13.727 138.863 13.3485 138.863 11.7148C138.863 10.2205 140.218 9.2443 142.748 9.2443C145.019 9.2443 146.892 10.2803 148.008 11.7745L148.028 11.7945C148.187 11.8542 149.522 11.1768 149.522 10.0611C149.522 8.36769 147.191 6.43515 142.589 6.43515C138.206 6.43515 135.396 8.7263 135.396 12.0933C135.396 15.9185 139.062 16.7354 141.732 17.2932C144.681 17.9308 146.374 18.2695 146.374 20.1024C146.374 21.5966 144.959 22.533 142.409 22.533C139.58 22.533 137.568 21.3775 136.353 19.8633C136.353 19.8434 136.353 19.8235 136.333 19.8235ZM35.7013 15.5998C37.4944 15.0021 37.4745 14.1653 37.2752 13.2688C36.7174 10.3201 34.3266 6.43515 29.0271 6.43515C23.7076 6.43515 19.8226 10.5194 19.8226 15.9783C19.8226 21.5966 23.6479 25.382 29.3259 25.382C34.227 25.382 36.9963 22.8717 36.9963 21.2978C36.9963 19.8633 35.4622 19.4648 35.1235 19.4449C35.0837 19.4449 35.0439 19.4648 35.0239 19.5047C34.0875 21.0985 32.5136 22.4533 29.4056 22.4533C26.0187 22.4533 23.5682 20.2418 23.2693 16.9545C23.1896 16.0978 23.1896 15.2411 23.3092 14.3645C23.7674 11.3761 26.0386 9.2443 29.0072 9.2443C31.637 9.2443 33.4301 10.8182 33.9481 13.3086C33.9481 13.3485 33.9282 13.4082 33.8883 13.4281C30.86 14.8228 25.2816 14.7431 24.7835 14.7231C24.7636 14.7231 24.7436 14.7431 24.7436 14.763C24.6042 15.4005 24.6241 16.3967 24.7436 17.0342C24.7436 17.0541 24.7636 17.0741 24.8034 17.0741C28.2899 17.2534 31.6769 16.9346 35.7013 15.5998Z" fill="#1D428A"/>
<path d="M12.8496 18.5085C12.8097 17.8511 13.6664 17.6917 13.7461 18.4687C13.9454 20.1622 14.3637 24.4855 14.4036 25.0831C14.4634 25.8203 13.7262 26.159 13.1285 25.5414C12.9891 25.382 9.18375 21.4572 8.90482 21.1583C8.6259 20.8395 8.46652 20.8395 8.1079 20.979C7.94852 21.0388 4.00375 22.5131 2.19075 23.1905C0.915673 23.6686 0.357827 22.8119 0.995365 21.8955C1.91183 20.5606 4.4819 16.9944 4.56159 16.8549C4.78075 16.5162 4.76082 16.317 4.38229 15.8588C4.12329 15.54 1.65283 12.9301 1.15475 12.2925C0.736365 11.7745 -0.14025 11.0772 0.0191345 10.3401C0.138673 9.76231 0.656673 9.52323 1.1946 9.62285C1.8919 9.74239 6.19529 11.0972 7.41059 11.3362C7.66959 11.396 7.82898 11.0772 8.24736 10.4198C9.58221 8.32785 10.7377 6.63439 11.2757 5.91716C12.0128 4.94093 13.0289 5.21985 13.1285 6.45508C13.2481 8.04893 13.527 11.1968 13.6864 12.6113C13.7262 13.0098 13.8856 13.2688 14.2243 13.3883C15.2404 13.7469 15.9377 14.0458 18.428 14.4243C18.4679 14.4243 18.4878 14.4642 18.4878 14.504C18.3284 15.4205 18.3683 16.1975 18.3882 16.4565C18.3882 16.4963 18.3484 16.5362 18.3085 16.5162C16.9737 16.2772 14.2243 15.7592 12.5507 14.8825C12.1324 14.6634 11.8335 14.2649 11.7339 13.7868C11.6542 13.3883 11.4948 10.2604 11.4351 9.12477C10.7377 10.2006 9.1439 12.691 9.04428 12.8504C8.80521 13.209 8.18759 13.5875 7.3309 13.3485C6.89259 13.209 4.26275 12.432 3.4459 12.2128C4.04359 12.9898 5.99606 15.0818 6.23513 15.3806C6.53398 15.7392 6.77305 16.1377 6.75313 16.5162C6.73321 16.9147 6.39452 17.2534 6.17536 17.5722C5.89644 17.9905 3.90413 20.3614 3.38613 21.1384C4.38229 20.7798 7.56998 19.5047 8.04813 19.3254C8.74544 19.0863 9.20367 19.2656 9.50251 19.6442C10.2994 20.6005 12.4511 22.8119 13.009 23.5889L12.8496 18.5085Z" fill="#F0C300"/>
</svg>
