<svg version="1.1" id="Layer_1" xmlns="http://www.w3.org/2000/svg" xmlns:xlink="http://www.w3.org/1999/xlink" x="0px" y="0px" viewBox="0 0 550.5 101.7" style="enable-background:new 0 0 550.5 101.7;" xml:space="preserve">
 <style type="text/css">
  .st0{fill:#FFDB00;}
 </style>
 <g>
  <path class="st0" d="M0,101.7c3.6-1.8,3.4-8,3.4-8.8c0-1.5,0-76.8,0-79.9c0.1-2.3-0.9-4.5-2.8-5.9h65.2c0,0-2.8,1.6-2.8,6
		c0,2.6,0,76.9,0,81.5c0,1.1,0.5,5.5,3.4,7L0,101.7z">
  </path>
  <path class="st0" d="M157.2,101.7c-3.3-2.3-3.2-7.1-3.2-8.2c0-0.8,0-14.6,0-30.6c0,0,18.2,28.7,19.9,32.9c1.9,4.6-0.2,5.9-0.2,5.9
		h75c0,0-0.8-0.5-1.9-1.4c-2.6-1.8-4.8-4-6.7-6.6c-2.7-3.6-30.1-48.1-30.1-48.1s20.7-28.8,23.9-33c1.7-2.1,3.7-4,5.9-5.5h-4.5h-59.7
		c0,0,3.6,2.5,0.4,7.1S154,44.8,154,44.8c0-15.9,0-30.6,0-31.7c-0.1-2.3,1-4.5,2.9-5.9H93.4c1.8,1.4,2.9,3.6,2.8,5.9
		c0.1,3.1,0,78.3,0,79.9c0,0.8,0.2,7-3.4,8.8L157.2,101.7z">
  </path>
  <path class="st0" d="M261.9,7.1c1.8,1.4,2.9,3.6,2.8,5.9c0,3.1,0,78.3,0,79.9c0,0.8,0.2,7-3.4,8.8h109.4V69.6c-2,2-4.6,3.1-7.4,3.1
		h-42.6v-7.5h30.7c1.9,0,7,0.6,8.3,2.3V38.6c-1.4,1.9-6.6,2.4-8.3,2.4h-30.8v-7.5c0,0,35.7,0,40.1,0c3.7,0.1,7.3,1.6,10,4.2V7.1
		H261.9z">
  </path>
  <path class="st0" d="M471.9,101.7c0,0,2.9-3.2,1.9-7.1c-1.3-4-2.8-7.8-4.6-11.6h-28c0,0-3.5,7.4-4.6,11.6c-1,3.9,1.9,7.1,1.9,7.1
		h-56.7c2.2-2.1,4-4.5,5.2-7.3c2-4.6,29-76.7,30.1-79.3c2-5-1.3-7.9-1.3-7.9h90.2c-2,2.2-2.6,5.3-1.5,8.1
		c1.7,5.1,30.5,76.5,31.8,79.1c1.4,2.9,3.4,5.4,6,7.3H471.9z M462.6,65.8c0,0-6.8-16.7-7-17.3c-0.6-1.6-0.9-3.2-1-4.9h-0.1
		c-0.1,1.7-0.4,3.3-0.9,4.9c-0.3,0.6-7,17.3-7,17.3H462.6z">
  </path>
  <path class="st0" d="M518.5,16.2c-0.1-8.8,7-16.1,15.8-16.2c8.8-0.1,16.1,7,16.2,15.8s-7,16.1-15.8,16.2c-0.1,0-0.1,0-0.2,0
		c-8.7,0.1-15.9-6.8-16-15.5C518.5,16.4,518.5,16.3,518.5,16.2 M534.5,29.4c7.1,0,12.8-5.6,12.8-13.2c0-7.1-5.7-12.8-12.8-12.8
		s-12.8,5.7-12.8,12.8c0,0,0,0,0,0C521.7,23.8,527.3,29.4,534.5,29.4 M531.2,25.3h-2.7V7.2h6.9c4.3,0,6.4,1.6,6.4,5.2
		c0,3.3-2,4.7-4.7,5l5.2,8h-3.1l-4.8-7.9h-3.2L531.2,25.3z M534.5,15.1c2.3,0,4.4-0.2,4.4-3c0-2.2-2-2.7-4-2.7h-3.8v5.7L534.5,15.1z
		">
  </path>
 </g>
</svg>