<?xml version="1.0" encoding="UTF-8"?>
<svg id="Livello_2" data-name="Livello 2" xmlns="http://www.w3.org/2000/svg" viewBox="0 0 616.72 120.23">
  <defs>
    <style>
      .cls-1 {
        fill: #fff;
      }

      .cls-2 {
        fill: #e30613;
      }

      .cls-3 {
        fill: #0b2355;
      }
    </style>
  </defs>
  <g id="Livello_1-2" data-name="Livello 1">
    <path class="cls-2" d="M282.52,91.41h325.41l-22.04,14.02,30.82,14.51H278.83s-10.3,.64-16.83,0c-8.52-.83-18.59-4.61-26.98-8.45,0,0,16.43,2.55,30.79-2.53,15.35-5.42,16.72-17.56,16.72-17.56Z"/>
    <g>
      <path class="cls-3" d="M147.35,31.03c-4.8-5.01-11.49-7.93-18.37-7.93-9.83,0-17.75,3.48-22.9,10.08-4.26,5.45-6.61,13.05-6.61,21.39,0,17.31,11.83,29.4,28.77,29.4,7.01,0,12.68-1.75,17.27-5.35v2.75c0,7.89-2.42,10.68-9.23,10.68-2.15,0-3.87-.45-4.84-1.26-.9-.75-1.22-1.53-1.22-1.87v-1h-27.61l.16,1.14c.59,4.26,4.8,18.16,34.25,18.16,32.07,0,34.62-14.33,34.62-33.07V24.82h-24.29v6.21Zm-11.53,34.44c-6.65-.11-9-5.82-9-10.68s1.02-8.6,3.03-10.59c1.4-1.37,3.27-2.04,5.74-2.04,.07,0,.14,0,.21,0h.02c8.46,0,9.72,7.48,9.72,11.94,0,3.97-1.13,7.24-3.19,9.21-1.62,1.55-3.8,2.27-6.51,2.16Z"/>
      <rect class="cls-3" x="176.67" y=".2" width="27.34" height="18.95"/>
      <rect class="cls-3" x="176.67" y="24.82" width="27.34" height="62.01"/>
      <path class="cls-3" d="M254.87,31.03c-4.8-5.01-11.49-7.93-18.37-7.93-9.83,0-17.75,3.48-22.9,10.08-4.26,5.45-6.61,13.05-6.61,21.39,0,17.31,11.83,29.4,28.77,29.4,7.01,0,12.68-1.75,17.27-5.35v2.75c0,7.89-2.42,10.68-9.23,10.68-2.15,0-3.87-.45-4.84-1.26-.9-.75-1.22-1.53-1.22-1.87v-1h-27.61l.16,1.14c.59,4.26,4.8,18.16,34.25,18.16,32.07,0,34.62-14.33,34.62-33.07V24.82h-24.29v6.21Zm-11.53,34.44c-6.65-.11-9.01-5.82-9.01-10.68s1.02-8.6,3.03-10.58c1.4-1.38,3.27-2.04,5.74-2.04,.07,0,.14,0,.21,0h.01c8.46,0,9.72,7.48,9.72,11.94,0,3.97-1.13,7.24-3.19,9.21-1.62,1.55-3.81,2.28-6.51,2.16Z"/>
      <path class="cls-3" d="M353.47,77.01v-28.06c0-15.14-2.37-25.85-33.04-25.85-24.12,0-35.84,6.92-35.84,21.16v1h26.25l.1-.88c.4-3.38,2.91-4.96,7.9-4.96,2.19,0,7.28,.38,7.28,3.92s-6.72,4.25-14.51,5.13c-13.05,1.47-30.92,3.49-30.92,20.98,0,11.6,9.33,19.09,23.78,19.09,10.03,0,16.93-2.12,23.33-7.27l1.05,5.55h28.02v-2.64l-.39-.3c-2.87-2.2-3.02-3.49-3.02-6.88Zm-37.54-3.98c-4.28,0-7.04-1.59-7.04-4.04,0-4.11,3.45-5,9.55-6.24,2.46-.5,5.2-1.05,7.77-2.03,.09,4.18-.86,7.45-2.78,9.52-1.71,1.85-4.24,2.78-7.5,2.78Z"/>
      <path class="cls-3" d="M405.46,23.1c-8.41,0-14.7,2.83-20.56,9.37v-7.65h-25.14v62.01h27.34v-31.58c0-8.18,2.49-11.37,8.87-11.37,5.46,0,7.89,3.15,7.89,10.22v32.72h27.34V49.87c0-17.51-8.9-26.77-25.73-26.77Z"/>
      <path class="cls-3" d="M467.33,61.32v-20.76h12.18v-15.74h-12.18V6.15h-26.97V24.82h-9.38v15.74h9.01v24.08c0,8.88,.73,14.71,4.44,18.24,3.47,3.3,9.32,4.41,19.48,4.41,4.07,0,8.83-.18,14.41-.47l.95-.05v-19.01h-5.02c-6.6,0-6.92-1.55-6.92-6.44Z"/>
      <path class="cls-3" d="M553.22,61.22c.19-11.07-3.27-20.54-10.01-27.39-6.91-7.02-16.76-10.73-28.51-10.73-21.89,0-37.18,13.69-37.18,33.29s14.64,32.15,37.3,32.15c27.29,0,34.47-14.36,36.29-20.53l.38-1.28h-26.19l-.28,.54c-1.55,3-4.68,4.73-8.61,4.73-6.22,0-11-4.15-11.5-9.8h48.3l.02-.98Zm-48.32-13.16c.42-5.37,4.3-8.42,10.78-8.42,4.98,0,9.54,3.9,10.14,8.42h-20.92Z"/>
      <rect class="cls-3" y="24.48" width="28.93" height="61.37"/>
      <rect class="cls-3" y=".13" width="28.93" height="18.77"/>
      <rect class="cls-3" x="33.56" width="29.11" height="85.85"/>
    </g>
    <g>
      <path class="cls-1" d="M281.95,106.04c-2.27,5.89,2.6,8.21,8.73,8.21,4.64,0,7.3-1.27,8.55-1.27,.44,0,1.15-.09,1.3-.47,.07-.19,.09-.68,.37-1.41,.27-.7,1.4-2.84,1.89-3.78,.84-1.57,2.37-.61,2.68-1.41,.1-.26,.05-.3-.46-.3-1.12,0-1.97,.09-2.75,.09-2,0-2.81-.09-3.32-.09-.58,0-1.01-.02-1.16,.38-.34,.89,3.19-.73,2.16,1.97-.65,1.69-1.54,3.57-3.42,4.58-1.37,.75-3.89,1.03-5.34,1.03-5.9,0-8.04-3.85-6.53-7.79,1.25-3.24,4.89-7.86,12.68-7.86,2.44,0,4.47,.63,5.97,1.67,2.33,1.6,.86,3.14,1.98,3.14,.24,0,.42-.21,.46-.3,.15-.4,.17-1.24,1.09-3.64,.06-.16,.14-.38-.13-.38-.37,0-.53,.4-1.17,.4-1.22,0-2.79-1.55-8.01-1.55-3.05,0-12.75,1.43-15.57,8.78Z"/>
      <path class="cls-1" d="M305.53,110.48c-.18,.3-.74,1.22-1.06,2.04-.32,.82-.27,1.57,.75,1.57,2.58,0,5.55-2.37,5.75-2.89,.07-.19-.04-.26-.27-.26-.47,0-2.32,1.71-3.47,1.71-.44,0-.47-.38-.32-.75,.05-.14,.36-.68,.56-1.01l6.46-11.15c.5-.87,1.86-2.91,1.91-3.03s-.09-.21-.33-.21-.49,.05-.93,.12c-2.53,.4-3.72,.17-3.91,.66-.19,.49,2.44-.09,2.16,.63-.1,.26-.49,.92-.76,1.36l-6.54,11.19Z"/>
      <path class="cls-1" d="M313.86,111.91c.56-1.46,5.12-7.77,5.18-7.91,.04-.12,.1-.26-.37-.26-.27,0-.71,.16-1.28,.23-2.27,.26-3.61,.05-3.77,.47-.25,.66,2.59-.05,2.3,.7-.24,.63-3.71,5.23-4.56,7.46-.23,.59-.26,1.48,.82,1.48,1.86,0,4.71-2.3,4.89-2.77,.05-.14-.08-.23-.25-.23-.47,0-1.84,1.43-2.65,1.43-.41,0-.49-.14-.31-.61Zm7.65-12.04c.11-.28-.19-1.36-.7-1.36s-1.72,.87-1.86,1.22c-.11,.28,.19,1.36,.7,1.36s1.72-.87,1.86-1.22Z"/>
      <path class="cls-1" d="M334.87,105.93c2.85,2.98,3.7,3.43,3.16,4.81-.73,1.9-3.41,2.79-5.88,2.79-3.08,0-4.2-.89-4.86-2.6-.06-.19-.03-.35-.37-.35-.3,0-.49,.21-.57,.42-.23,.59-.14,2.21,.02,2.51,.36,.75,3.34,.75,4.35,.75,6.57,0,9.22-2.65,9.79-4.13,.66-1.71-.11-2.54-3.25-5.47-2.68-2.53-3.06-3.05-2.51-4.48,.53-1.39,1.99-2.28,4.06-2.28,1.76,0,4.23,.89,4.45,3.14,.01,.24,.04,.59,.42,.59,.34,0,.45-.21,.49-.3,.13-.33,.11-1.34,.79-3.12,.12-.31,.14-.45-.1-.45-.27,0-.93,.31-1.1,.31-.75,0-2.23-.8-4.71-.8-1.46,0-5.56,.45-6.73,3.5-.58,1.5-.18,2.32,2.55,5.16Z"/>
      <path class="cls-1" d="M348.03,105.04c.31-.54,1.12-.63,1.8-.63,1.43-.12,4.79,.4,3.58,3.54-1.02,2.65-4.42,5.77-8.93,5.77-.81,0-1.14-.12-.92-.68,.06-.16,.14-.35,.34-.7l4.13-7.3Zm-8.93,12.04c-.85,1.5-2.17,.8-2.42,1.45-.1,.26,.25,.24,.45,.24,.74,0,1.46-.09,2.2-.09,1.29,0,2.54,.09,3.52,.09,.34,0,.55-.12,.61-.26,.23-.61-2.77,.24-2.16-1.34,.22-.56,1.49-3,1.87-3,.2,0,.4,.09,.98,.09,6.47,0,10.86-4.11,11.84-6.64,1.06-2.75-1.32-3.87-4.27-3.87-1.46,0-2.31,.19-2.61,.19-.2,0-.28-.07-.21-.26,.05-.14,1.38-2.35,1.44-2.51,.1-.26,.03-.33-.25-.33-.37,0-1.72,.24-2.06,.68-.48,.63-1.49,2.72-1.63,2.75-1.13,.21-2.71,.54-2.87,.94-.07,.19,0,.28,.26,.28,.24,0,.91-.35,2.16-.52l-6.86,12.11Z"/>
      <path class="cls-1" d="M355.82,110.76c-.77,2,.42,3.5,3.43,3.5,3.59,0,6.88-1.76,7-2.09,.06-.17-.05-.21-.29-.21-.75,0-1.83,1.06-4.54,1.06s-4.01-.77-3.06-3.24c.25-.66,.31-.63,1.19-.63,2.64,0,8.25-.92,9.22-3.45,.6-1.57-.95-1.95-2.23-1.95-3.76,0-9.36,3.45-10.73,7.02Zm9.62-6.24c1.12,0,1.57,.42,1.27,1.2-.78,2.02-5.09,2.93-6.92,2.93-.54,0-.75-.07-.71-.19,.32-.82,3.48-3.94,6.36-3.94Z"/>
      <path class="cls-1" d="M371.14,109.71c.69-1.81,3.15-5.12,6.54-5.12,2.74,0,1.82,1.62,3,1.62,.68,0,1.33-.21,1.6-.89,.37-.96-1.56-1.57-3.02-1.57-3.93,0-9.12,2.65-10.72,6.83-.76,1.97-.03,3.68,3.09,3.68,4.44,0,7.37-2.16,7.41-2.25,.05-.14,0-.26-.17-.26-.71,0-2.05,1.29-5.17,1.29-2.88,0-3.23-1.55-2.55-3.33Z"/>
      <path class="cls-1" d="M383.28,111.91c.56-1.46,5.12-7.77,5.18-7.91,.04-.12,.1-.26-.38-.26-.27,0-.71,.16-1.28,.23-2.27,.26-3.61,.05-3.77,.47-.25,.66,2.59-.05,2.3,.7-.24,.63-3.71,5.23-4.56,7.46-.23,.59-.26,1.48,.82,1.48,1.86,0,4.71-2.3,4.89-2.77,.05-.14-.08-.23-.25-.23-.47,0-1.84,1.43-2.65,1.43-.41,0-.49-.14-.31-.61Zm7.65-12.04c.11-.28-.19-1.36-.7-1.36s-1.72,.87-1.86,1.22c-.11,.28,.19,1.36,.7,1.36s1.72-.87,1.86-1.22Z"/>
      <path class="cls-1" d="M389.75,111.14c.96-2.49,5.58-6.67,8.83-6.67,1.56,0,1.74,.59,1.61,.92-.26,.68-3.1,4.72-3.25,5.09-.13,.33-2.96,2.58-5.6,2.58-2.27,0-1.74-1.55-1.6-1.92Zm-2.32,.4c-.56,1.45-.27,2.72,2.07,2.72,2.64,0,5.22-1.34,7.06-2.67l.05,.05c-.47,.96-.47,2.46,1.09,2.46,1.8,0,4.33-2.37,4.43-2.63,.11-.28-.15-.24-.38-.24-.54,0-1.56,1.41-2.51,1.41-.24,0-.86,.02-.43-1.08,1.02-2.65,4.74-7.93,4.81-8.1,.06-.16-.09-.21-.22-.21-.41,0-1.36,.99-1.87,.99-.44,0-.84-.12-1.22-.26-.39-.12-.79-.23-1.23-.23-4.54,0-10.57,5.02-11.64,7.79Z"/>
      <path class="cls-1" d="M404.4,110.48c-.19,.3-.74,1.22-1.06,2.04s-.27,1.57,.75,1.57c2.58,0,5.55-2.37,5.75-2.89,.07-.19-.04-.26-.27-.26-.47,0-2.32,1.71-3.47,1.71-.44,0-.46-.38-.32-.75,.05-.14,.36-.68,.56-1.01l6.45-11.15c.5-.87,1.86-2.91,1.91-3.03,.04-.12-.09-.21-.33-.21s-.49,.05-.93,.12c-2.53,.4-3.72,.17-3.91,.66-.19,.49,2.44-.09,2.16,.63-.1,.26-.49,.92-.76,1.36l-6.54,11.19Z"/>
      <path class="cls-1" d="M413.07,111.91c.56-1.46,5.12-7.77,5.17-7.91,.05-.12,.1-.26-.37-.26-.27,0-.71,.16-1.28,.23-2.27,.26-3.61,.05-3.77,.47-.25,.66,2.59-.05,2.3,.7-.24,.63-3.71,5.23-4.56,7.46-.23,.59-.26,1.48,.82,1.48,1.86,0,4.71-2.3,4.89-2.77,.05-.14-.08-.23-.25-.23-.47,0-1.84,1.43-2.65,1.43-.41,0-.49-.14-.31-.61Zm7.64-12.04c.11-.28-.19-1.36-.7-1.36s-1.72,.87-1.86,1.22c-.11,.28,.19,1.36,.7,1.36s1.72-.87,1.86-1.22Z"/>
      <path class="cls-1" d="M420.29,113.65c-2.27,0-.9-1.62-2.56-1.62-1.05,0-1.24,.59-1.27,.66-.51,1.31,2.14,1.57,3.26,1.57,2.3,0,5.37-.82,6.18-2.93,1.07-2.77-3.74-3.94-3.08-5.66,.33-.87,1.27-1.36,2.29-1.36,1.83,0,.66,1.45,2.35,1.45,.34,0,1.09-.09,1.3-.66,.14-.38-.19-1.36-2.56-1.36-1.69,0-4.63,.4-5.51,2.7-.9,2.35,3.89,3.29,3,5.59-.36,.94-1.78,1.62-3.4,1.62Z"/>
      <path class="cls-1" d="M435.24,104.26l1.02-1.5c.11-.19,.34-.45,.39-.56,.09-.23-.1-.26-.27-.26-.68,0-1.8,1.43-4.04,2.14-1.42,.45-1.67,.63-1.7,.73-.23,.59,1.78-.05,1.54,.56-.18,.47-3.33,5.49-3.82,6.76-.38,.99-.48,2.14,1.28,2.14,2.58,0,5.9-2.3,6.02-2.6,.03-.07,.08-.21-.26-.21-.61,0-1.87,1.34-3.77,1.34-1.29,0-1.02-.77-.84-1.24,.19-.49,3.68-6.41,3.99-6.41h2.61c.47,0,.93,.05,1.11-.42,.19-.49-.3-.45-.78-.45h-2.47Z"/>
      <path class="cls-1" d="M439.26,111.91c.56-1.46,5.12-7.77,5.18-7.91,.04-.12,.1-.26-.38-.26-.27,0-.71,.16-1.28,.23-2.27,.26-3.61,.05-3.77,.47-.25,.66,2.59-.05,2.3,.7-.24,.63-3.71,5.23-4.56,7.46-.23,.59-.26,1.48,.82,1.48,1.86,0,4.71-2.3,4.89-2.77,.05-.14-.08-.23-.25-.23-.47,0-1.84,1.43-2.65,1.43-.41,0-.49-.14-.31-.61Zm7.65-12.04c.11-.28-.19-1.36-.7-1.36s-1.72,.87-1.86,1.22c-.11,.28,.19,1.36,.7,1.36s1.72-.87,1.86-1.22Z"/>
      <path class="cls-1" d="M455.14,113.11c-1.9,0-2.37-1.15-1.91-2.35,.56-1.46,4.25-6.38,8.52-6.38,1.9,0,1.79,.54,1.49,1.34-.24,.61-2.28,4.25-3.13,5.14-1.09,1.17-3.1,2.25-4.97,2.25Zm8.87-8.8c-.55-.33-1.14-.56-1.99-.56-5.46,0-10.18,5.42-10.96,7.44-.62,1.62-.03,3.07,2.54,3.07,2.41,0,4.93-1.01,6.41-2.65l.05,.05c-.39,.94-.87,2.44,.99,2.44s4.28-1.88,4.56-2.6c.04-.09-.1-.19-.23-.19-.68,0-1.94,1.53-2.79,1.53-1.05,0-.5-.89-.13-1.85,.48-1.24,6.33-11.36,7.67-13.52,.18-.28,.37-.61,.42-.73,.05-.12-.09-.21-.33-.21s-.49,.05-.93,.12c-2.53,.4-3.72,.17-3.91,.66-.19,.49,2.44-.09,2.16,.63-.1,.26-.22,.49-.76,1.36l-2.78,5.02Z"/>
      <path class="cls-1" d="M466.47,110.76c-.77,2,.42,3.5,3.43,3.5,3.59,0,6.88-1.76,7-2.09,.06-.17-.05-.21-.29-.21-.75,0-1.83,1.06-4.54,1.06s-4.01-.77-3.06-3.24c.25-.66,.31-.63,1.19-.63,2.64,0,8.25-.92,9.22-3.45,.6-1.57-.95-1.95-2.23-1.95-3.76,0-9.36,3.45-10.73,7.02Zm9.62-6.24c1.12,0,1.57,.42,1.27,1.2-.78,2.02-5.09,2.93-6.92,2.93-.54,0-.75-.07-.71-.19,.32-.82,3.48-3.94,6.36-3.94Z"/>
      <path class="cls-1" d="M479.22,110.48c-.18,.3-.74,1.22-1.06,2.04-.32,.82-.27,1.57,.75,1.57,2.58,0,5.55-2.37,5.75-2.89,.07-.19-.04-.26-.27-.26-.47,0-2.32,1.71-3.47,1.71-.44,0-.46-.38-.32-.75,.05-.14,.36-.68,.56-1.01l6.46-11.15c.5-.87,1.86-2.91,1.91-3.03,.04-.12-.09-.21-.33-.21s-.49,.05-.93,.12c-2.53,.4-3.72,.17-3.91,.66-.19,.49,2.44-.09,2.16,.63-.1,.26-.49,.92-.76,1.36l-6.54,11.19Z"/>
      <path class="cls-1" d="M504.31,99.1c.3-.52,.74-.68,2.63-.68,5.56,0,6.38,.33,6.09,1.97-.05,.21-.25,.75,.19,.75,.54,0,.62-.47,.75-.8,.88-2.46,1.07-2.51,1.1-2.6,.04-.09,.1-.26-.27-.26-2.91,0-6.17,.09-7.32,.09-2,0-4.4-.09-6.67-.09-.88,0-1,.14-1.05,.26-.23,.59,2.6,.02,2,1.57-.13,.33-.38,.82-.67,1.31l-6.61,11.8c-.84,1.48-2.47,.77-2.74,1.48-.09,.23,.23,.19,.81,.19,.71,0,1.87-.09,3.02-.09,1.29,0,2.84,.09,3.69,.09,.37,0,.52-.02,.63-.33,.27-.7-3.4,.12-2.83-1.36,.09-.23,.29-.59,.73-1.45l1.76-3.36c.45-.82,.84-1.57,1.49-1.57h4.81c3.32,0,.73,2.32,1.82,2.32,.54,0,.98-1.22,1.55-2.44,.39-.84,1.1-1.71,1.36-2.39,.12-.31-.05-.31-.19-.31-.91,0-.89,1.78-4.18,1.78h-4.24c-.68,0-.94,.07-.74-.45,.07-.19,.12-.3,.21-.47l2.86-4.98Z"/>
      <path class="cls-1" d="M521.65,103.75c-1.97,0-4.66,2.16-5.37,2.61,.48-1.78-.39-2.61-1.3-2.61-1.69,0-3.8,2.39-4.11,3.19-.11,.28-.14,.45,.03,.45,.81,0,1.62-1.83,2.84-1.83,1.36,0,.85,1.41,.59,2.09-.23,.61-.57,1.13-3.67,6.03-.14,.35,.15,.33,.55,.33h1.25c.34,0,.47-.26,.71-.7l2.9-4.81c.53-.84,1.98-3.31,3.68-3.31,1.25,0,.94,1.08,1.35,1.08,.58,0,1.75-1.64,1.82-1.83,.15-.4-.86-.68-1.26-.68Z"/>
      <path class="cls-1" d="M520.67,110.76c-.77,2,.42,3.5,3.43,3.5,3.59,0,6.88-1.76,7-2.09,.06-.17-.05-.21-.29-.21-.75,0-1.83,1.06-4.54,1.06s-4-.77-3.06-3.24c.25-.66,.31-.63,1.19-.63,2.64,0,8.25-.92,9.22-3.45,.6-1.57-.95-1.95-2.23-1.95-3.76,0-9.36,3.45-10.73,7.02Zm9.62-6.24c1.12,0,1.57,.42,1.27,1.2-.78,2.02-5.09,2.93-6.92,2.93-.54,0-.75-.07-.71-.19,.32-.82,3.48-3.94,6.36-3.94Z"/>
      <path class="cls-1" d="M535.77,113.65c-2.27,0-.9-1.62-2.56-1.62-1.05,0-1.24,.59-1.27,.66-.5,1.31,2.14,1.57,3.26,1.57,2.3,0,5.36-.82,6.18-2.93,1.06-2.77-3.74-3.94-3.08-5.66,.33-.87,1.27-1.36,2.29-1.36,1.83,0,.66,1.45,2.35,1.45,.34,0,1.09-.09,1.3-.66,.14-.38-.19-1.36-2.56-1.36-1.69,0-4.63,.4-5.51,2.7-.9,2.35,3.89,3.29,3,5.59-.36,.94-1.77,1.62-3.4,1.62Z"/>
      <path class="cls-1" d="M546.05,109.71c.69-1.81,3.15-5.12,6.54-5.12,2.75,0,1.82,1.62,3,1.62,.68,0,1.33-.21,1.6-.89,.37-.96-1.56-1.57-3.02-1.57-3.93,0-9.12,2.65-10.72,6.83-.76,1.97-.03,3.68,3.09,3.68,4.44,0,7.37-2.16,7.41-2.25,.05-.14,0-.26-.17-.26-.71,0-2.05,1.29-5.17,1.29-2.88,0-3.23-1.55-2.55-3.33Z"/>
      <path class="cls-1" d="M559.89,114.26c4.81,0,8.93-3.21,10.1-6.27,.93-2.42-.26-4.25-3.92-4.25-4.71,0-8.9,3.5-10.02,6.41-.9,2.35,.32,4.11,3.84,4.11Zm-1.65-3.9c.86-2.23,3.42-6.08,7.59-6.08,2.75,0,2.75,1.48,2.11,3.14-.87,2.28-3.5,6.29-7.84,6.29-2.68,0-2.42-1.9-1.86-3.36Z"/>
    </g>
  </g>
</svg>