<svg width="121" height="35" viewBox="0 0 121 35" fill="none" xmlns="http://www.w3.org/2000/svg">
<g clip-path="url(#clip0_577_193703)">
<path d="M120.5 31.0559H0.5V4.71484H120.5V31.0559ZM1.32993 30.2235H119.67V5.54722H1.32993V30.2235Z" fill="white"/>
<path d="M75.3871 21.8821L74.9915 21.5654L76.2514 20.5008L76.52 20.739C77.0933 21.2481 77.8666 21.4852 78.9529 21.4852C79.8931 21.4852 81.0157 21.3123 81.0157 20.4893C81.0157 20.244 81.0157 19.8333 79.8255 19.7379L78.458 19.6335C76.0911 19.4725 75.5933 18.335 75.5933 17.4086C75.5933 15.9568 76.9172 15.0186 78.9655 15.0186C80.1559 15.0186 81.2927 15.3088 82.083 15.8144L82.5602 16.1198L81.3124 17.1681L81.0579 17.0113C80.4228 16.6445 79.6983 16.4624 78.9657 16.4854C78.336 16.4854 77.2802 16.6054 77.2802 17.4088C77.2802 17.6546 77.2802 18.0658 78.5704 18.1591L79.9067 18.2564C80.6721 18.3132 82.7021 18.4647 82.7021 20.4895C82.7021 21.9924 81.2441 22.9635 78.9871 22.9635C77.4522 22.9635 76.3081 22.6197 75.3871 21.8821ZM64.6253 21.8821L64.232 21.5657L65.4897 20.5013L65.758 20.7397C66.3313 21.2488 67.1034 21.4859 68.1863 21.4859C69.1293 21.4859 70.2532 21.313 70.2532 20.49C70.2532 20.2447 70.2532 19.8345 69.0607 19.7386L67.6914 19.6342C65.3234 19.4732 64.826 18.3357 64.826 17.4093C64.826 15.9798 66.1829 15.0193 68.2028 15.0193C69.3928 15.0193 70.5279 15.3095 71.3182 15.8154L71.7934 16.1196L70.5536 17.1683L70.2988 17.0124C69.662 16.6464 68.9367 16.4642 68.203 16.4859C67.5719 16.4859 66.5122 16.6059 66.5122 17.4093C66.5122 17.6392 66.5122 18.0658 67.8047 18.1596L69.1403 18.2568C69.906 18.3136 71.9381 18.4649 71.9381 20.49C71.9381 21.9929 70.4782 22.9639 68.2186 22.9639C66.6849 22.9635 65.5429 22.6197 64.6253 21.8814V21.8821ZM110.639 22.8777V15.1058H112.34V22.8777H110.639ZM86.8004 22.8777V15.1058H88.5041V22.8777H86.8004ZM58.7709 22.8777V15.1058H60.4727V22.8777H58.7709ZM34.9344 22.8777V15.1058H36.6362V22.8777H34.9344ZM8.68302 22.8777V15.1058H10.3851V22.8777H8.68302ZM104.257 22.8777V18.1591C104.257 17.057 103.63 16.4983 102.392 16.4983C101.215 16.4983 100.484 17.0842 100.484 18.0276V22.8777H98.7801V18.1591C98.7801 17.057 98.1536 16.4983 96.9183 16.4983C96.0468 16.4983 95.0082 16.7864 95.0082 18.1591V22.8777H93.3041V15.1058H95.0084V15.513C95.6311 15.1753 96.3303 15.0047 97.0382 15.0177C98.1763 15.0177 99.1069 15.3787 99.7167 16.0455C100.474 15.3523 101.471 14.9834 102.496 15.0177C103.369 14.9818 104.229 15.2466 104.932 15.7682C105.261 16.0421 105.524 16.3879 105.699 16.7792C105.874 17.1704 105.957 17.5967 105.943 18.0253V22.8754L104.257 22.8777ZM52.3876 22.8777V18.1591C52.3876 17.057 51.7611 16.4983 50.526 16.4983C49.3468 16.4983 48.6143 17.0842 48.6143 18.0276V22.8777H46.9104V18.1591C46.9104 17.057 46.2844 16.4983 45.0501 16.4983C44.1787 16.4983 43.1392 16.7864 43.1392 18.1591V22.8777H41.438V15.1058H43.1392V15.5144C43.7625 15.1759 44.4626 15.0048 45.1714 15.0177C46.3082 15.0177 47.2383 15.3789 47.849 16.046C48.6063 15.3529 49.6037 14.9839 50.6285 15.0177C51.5019 14.9816 52.3613 15.2466 53.0634 15.7687C53.393 16.042 53.6554 16.3877 53.8304 16.779C54.0054 17.1703 54.0882 17.5967 54.0725 18.0253V22.8754L52.3876 22.8777ZM29.6672 22.8777C28.2089 22.8777 27.2671 22.0014 27.2671 20.6452V16.4865H26.1367V15.1055H27.2671V12.8855H28.9689V15.1055H30.834V16.4865H28.9689V20.6625C28.9689 21.0453 29.0721 21.3983 29.8199 21.3983H30.8342V22.8768L29.6672 22.8777ZM20.6593 22.8777V18.1591C20.6593 17.057 20.0349 16.4983 18.8018 16.4983C17.9283 16.4983 16.8871 16.7864 16.8871 18.1591V22.8777H15.1853V15.1058H16.8871V15.5111C17.5044 15.1726 18.1995 15.0024 18.9029 15.0177C19.9119 15.0177 20.7364 15.2706 21.3526 15.7682C21.6826 16.0414 21.9455 16.3871 22.121 16.7785C22.2964 17.1698 22.3797 17.5965 22.3643 18.0253V22.8754L20.6593 22.8777Z" fill="white"/>
</g>
<defs>
<clipPath id="clip0_577_193703">
<rect width="120" height="34.0909" fill="white" transform="translate(0.5 0.704102)"/>
</clipPath>
</defs>
</svg>
