<svg id="Layer_1" data-name="Layer 1" xmlns="http://www.w3.org/2000/svg" viewBox="0 0 750 100.87"><defs><style>.cls-1{fill:#e30513;}</style></defs><title>mediaworld-logo-freelogovectors.net</title><path class="cls-1" d="M0,423.07H20.86L66.29,363.8,56.17,423.07h12.6L114.2,363.8l-10.33,59.27h16.52l17.14-98.5H122.67L80.54,379.29l9.08-54.72H74.76" transform="translate(0 -324.57)"/><path class="cls-1" d="M591.85,324.57H571l-45.43,59.26,10.12-59.26H523.09l-45.43,59.26L488,324.57H471.46l-17.14,98.5h14.87l42.13-54.73-9.09,54.73h14.86" transform="translate(0 -324.57)"/><path class="cls-1" d="M149.92,377.78s5.1-8.95,15.7-8.95,11.56,8.95,11.56,8.95ZM165,350.59s-30.22,0-35.73,38c-5.73,39.56,44.82,50.18,61.75,10.94H171.54s-3.72,6.61-14.46,6.61-11.28-11.57-11.28-11.57h47.08s9.71-44-27.88-44" transform="translate(0 -324.57)"/><path class="cls-1" d="M244.82,387.44c-2.9,14.65-13.63,19.12-22.21,18.49s-13.76-11.15-7.63-25,18.3-11.9,18.3-11.9c4.79,0,14.43,3.75,11.54,18.4m8.63-53.85L249.19,356s-7.58-5.44-16.11-5.44-24.92,4.06-33.59,24.57-2.21,43.23,16.1,47.91c0,0,11.84,3.72,21.62-2.48l.28,2.48h17.07l15.55-89.48" transform="translate(0 -324.57)"/><path class="cls-1" d="M724.7,388.7c-2.89,14.65-13.63,19.11-22.2,18.49s-13.77-11.15-7.64-25,18.31-11.91,18.31-11.91c4.79,0,14.42,3.75,11.53,18.41m8.64-53.86-4.27,22.44s-7.57-5.44-16.11-5.44-24.91,4.07-33.59,24.58-2.2,43.23,16.11,47.91c0,0,11.84,3.72,21.62-2.48l.27,2.48h17.07L750,334.84" transform="translate(0 -324.57)"/><path class="cls-1" d="M332.08,387.44c-2.89,14.65-13.63,19.12-22.2,18.49s-13.76-11.15-7.64-25S320.55,369,320.55,369c4.79,0,14.42,3.75,11.53,18.4m5.36-34.1-1,2.69s-7.57-5.44-16.1-5.44-24.92,4.06-33.59,24.57-2.21,43.23,16.1,47.91c0,0,11.84,3.72,21.62-2.48l.27,2.48h17.07l12.09-69.53" transform="translate(0 -324.57)"/><path class="cls-1" d="M257.1,423.07H274l12.59-69.59H270.11Z" transform="translate(0 -324.57)"/><path class="cls-1" d="M273.42,333.59l-3.31,13.28h16.52l2.69-13.28Z" transform="translate(0 -324.57)"/><path class="cls-1" d="M666.2,333.17H683L667,424H649.54Z" transform="translate(0 -324.57)"/><path class="cls-1" d="M582.91,407.2c-12.6,0-14.81-16.25-8.34-27.29a19,19,0,0,1,17.51-9.85c2.68,0,12,2.53,11.89,14.7s-8.79,22.41-21.06,22.44m13.9-54.89s-23.27-3.3-35.93,18.31-7.57,52.87,18,54.38,41-20.1,41.24-43.92-18-28.77-23.27-28.77" transform="translate(0 -324.57)"/><path class="cls-1" d="M628.2,354.38h16.93v1s5.12-3,14.61-2L657,370s-14.25-1.86-16.52,12S633,424,633,424H615.6" transform="translate(0 -324.57)"/><path class="cls-1" d="M456.37,367.3c-.17-.22-29.39-36.8-57.12-9.62,0,0,15-27.53,54.79,0a48.91,48.91,0,0,0-7.33-13.45c-.16-.07-46.38-17.73-54.76,19,0,0-2.18-32.51,48.74-25.48A50.37,50.37,0,0,0,428,329.29c-51.76,4.73-39.37,42.43-39.37,42.43-14.92-32.43,28.18-45.84,28.69-46a51,51,0,0,0-10.86-1.15,52.84,52.84,0,0,0-6.58.41c-36.78,29.15-10.7,54.31-10.7,54.31-27.92-23.12,1.17-51.91,1.53-52.26a50.58,50.58,0,0,0-16.67,9.12c-14.29,41.44,20.51,51.23,20.51,51.23C362,380.79,367.15,343.51,367.22,343a49,49,0,0,0-7.28,12c5.25,41.55,42.2,36.11,42.2,36.11-27,8-42.42-18.74-45.45-24.62a50.41,50.41,0,0,0-.55,7.31,49.24,49.24,0,0,0,.45,6.58c.21.28,20.52,28,53,10.87,0,0-22.37,21.16-51.13-2.69a48.45,48.45,0,0,0,7,13.75s39.48,14.65,53.64-15.74c0,0-1.45,26.19-46.24,23.86a50.9,50.9,0,0,0,11.62,7.67c44.84-5,39.58-39.38,39.58-39.38,7.64,25.07-18.83,37.46-32.57,42.1a51.3,51.3,0,0,0,15,2.23c1,0,2.07,0,3.1-.1.44-.29,38.68-26.49,14.31-54.55,0,0,27.84,17.31-5.21,53.19a50.59,50.59,0,0,0,15.75-6.83c.12-.21,22.81-41-17.29-55.45,0,0,35.69,2.65,25.08,49.16a49.19,49.19,0,0,0,9.86-13.81c0-.57-2.83-47.55-44-38.31,0,0,29.1-17,47.52,28.3a48.49,48.49,0,0,0,.79-17.37" transform="translate(0 -324.57)"/></svg>