<svg xmlns="http://www.w3.org/2000/svg" width="2500" height="2500" viewBox="0 0 192.756 192.756"><g fill-rule="evenodd" clip-rule="evenodd"><path fill="#fff" d="M0 0h192.756v192.756H0V0z"/><path d="M113.143 99.443c-.174.438-.262.875-.438 1.312-2.102-7.267-8.316-10.243-12.168-6.566 0 0 3.414-2.714 7.615.-5.428 4.814-12.345-.264-13.92-.086 0 4.027 1.663 2.977 7.09-.262 1.227-1.486 4.379-5.951 6.916-.525-.086-1.139-.174-1.752-.262-.525-.176-.963-.35-1.489-.525 7.354-2.014 10.331-8.229 6.655-12.169 0 0 2.713 3.415-.877 7.616-.787.875-3.502 3.064-8.579 3.064-.875-.701-1.75-1.4-2.451-2.275 7.354 1.838 13.132-2.014 11.819-7.268 0 0 .6998-7.003-5.865.087-.613.175-1.226.35-1.838.087-.438.263-.876.438-1.313 2.014 7.179 8.229 10.156 12.169 6.478 0 0-3.414 2.715-7.617-.875-.963-.875-3.063-3.415-3.063-8.492.613-.875 1.4-1.75 2.188-2.363-1.751 7.179 2.101 12.869 7.267 11.643.086 0-4.291.613-6.042-4.551-.438-1.226-.963-4.553 1.488-8.842.963-.525 2.014-.788 3.151-1.051-5.55 8.317-6.479 12.169 0 0-2.713-3.415.965-7.617.787-.875 3.414-3.064 8.404-3.064.875.613 1.75 1.401 2.451 2.276-7.268-1.751-12.871 2.102-11.645 7.267 0 0-.701-4.29 4.553-6.128 1.139-.351 4.465-.963 8.842 1.575a11.18 11.18 0 0 1 1.051 3.152c-5.428-5.165-12.256-4.64-13.832.438 0 .087 1.576-4.027 7.004-2.977 1.225.263 4.465 1.4 6.916 75-6.39 3.414-8.229 1.926-1.488 5.077-1.838 7.267-.613 1.4.7 2.101 1.576 2.626 2.626.7 1.488.788 3.414.35 5.078H38.028c0 .002-.35 2.015 2.364 2.365zm-1.663-5.603h5.953s-.525-2.276-3.064-1.838c-2.101.349-2.889 1.838-2.889 1.838zM181.605 92.701h-4.291l-4.814 4.814 1.838-9.892h-3.678l-3.588 18.736h3.676l1.139-5.779 4.027 5.691h4.27 85.61h3.94l-3.94 20.661h-3.939l2.714-13.57-11.206 13.57h-3.764l3.151-13.745L7.65 106.271H2.834L20.432 85.61h3.764l-2.714 13.132zM130.916 98.654l10.768-13.132h4.027l-4.027 20.662h-3.94l2.713-13.57-11.205 13.57h-3.764l3.239-13.745-11.731 13.745h-4.816l17.597-20.662h3.764l-2.625 13.132zM168.561 92.176c-1.4 0-2.803.963-3.414 157h-3.765l2.714-13.57h3.677zm-2.801-4.99l-.525 2.451h3.764l.438-2.451h-3.677zM66.656 87.624l-3.764 18.648H59.04l.087-.264c-.963.352-2.188.525-3.502.525-3.939 0-6.741-3.238-6.215-7.178.438-3.853 4.027-7.004 7.966-7.004 1.576 0 3.064.525 4.115 1.401l1.226-6.128h3.939zm-10.418 15.671c2.276 0 4.29-1.576 4.377-3.939 0-1.752-.963-3.-6.303-7.09.525-3.941 4.115-7.092 8.054-7.092 1.488 0 2.802.438 3.852 1.226l.175-.875h3.765zm-8.754 10.594c2.451-.176 3.765-1.664 3.939-3.852.175-2.014-.875-3.503-2.802-3.765-2.364-.263-4.552 1.664-4.727 3.765-.35 2.801 2.014 3.94 3.59 3.852zM160.068 92.876l-2.539 13.569h-3.764l.086-.262c-.963.262-2.014.438-3.326.438-3.852 0-6.654.244-2.361-1.629 0-4.612 1.373-4.612 2.891v9.395h-6.48v-13.975z"/></g></svg>