<svg xmlns="http://www.w3.org/2000/svg" viewBox="0 0 296.23 54.2">
  <defs>
    <style>
      .cls-1 {
        fill: #012169;
      }

      .cls-2 {
        fill: #f2392f;
      }
    </style>
  </defs>
  <g id="Layer_2" data-name="Layer 2">
    <g id="Layer_1-2" data-name="Layer 1">
      <path id="Shape" class="cls-1" d="M141.06,0c7.29,0,12.63,4.9,12.63,12.52s-5.34,12.53-12.63,12.53-12.64-4.91-12.64-12.53S133.76,0,141.06,0Zm0,20.21c4.42,0,7.29-3.25,7.29-7.69s-2.87-7.68-7.29-7.68-7.3,3.24-7.3,7.68S136.69,20.21,141.06,20.21Z"/>
      <path id="Shape-2" data-name="Shape" class="cls-1" d="M158.05.66h9c4.82,0,8.86,1.66,8.86,7.23,0,3.31-1.76,5.89-5.08,6.56l5.92,10.07h-6.18L165.73,15h-2.54v9.54h-5.14Zm5.14,9.88h3.07c1.88,0,4.36-.07,4.36-2.65,0-2.39-2.15-2.79-4-2.79h-3.39v5.44Z"/>
      <polygon id="Shape-3" data-name="Shape" class="cls-1" points="180.25 0.66 185.4 0.66 185.4 24.52 180.25 24.52 180.25 0.66"/>
      <path id="Shape-4" data-name="Shape" class="cls-1" d="M212.16,22.8a21.07,21.07,0,0,1-9.83,2.31c-7.29,0-12.63-4.9-12.63-12.52S195,.07,202.33.07c3.71,0,7,.86,9.31,3L208,7.16a7.12,7.12,0,0,0-5.66-2.26c-4.43,0-7.29,3.25-7.29,7.69s2.86,7.69,7.29,7.69a10,10,0,0,0,4.88-1.2V15.24H203V10.4h9.18Z"/>
      <polygon id="Shape-5" data-name="Shape" class="cls-1" points="217.44 0.66 222.58 0.66 222.58 24.52 217.44 24.52 217.44 0.66"/>
      <polygon id="Shape-6" data-name="Shape" class="cls-1" points="228.12 0.66 235.15 0.66 245.11 17.23 245.18 17.23 245.18 0.66 250.32 0.66 250.32 24.52 243.55 24.52 233.32 7.55 233.26 7.55 233.26 24.52 228.12 24.52 228.12 0.66"/>
      <path id="Shape-7" data-name="Shape" class="cls-1" d="M263.67.66H268l10.22,23.86h-5.8l-2-5h-9.12l-1.95,5h-5.67Zm1.95,6.89L262.76,15h5.73Z"/>
      <polygon id="Shape-8" data-name="Shape" class="cls-1" points="281.51 0.66 286.65 0.66 286.65 19.68 296.23 19.68 296.23 24.52 281.51 24.52 281.51 0.66"/>
      <polygon id="Shape-9" data-name="Shape" class="cls-1" points="129.85 29.82 137.67 29.82 143.07 45.39 143.14 45.39 148.54 29.82 156.29 29.82 156.29 53.67 151.21 53.67 151.21 35.39 151.15 35.39 144.96 53.67 141.06 53.67 135.13 35.39 135.06 35.39 135.06 53.67 129.92 53.67 129.92 29.82 129.85 29.82"/>
      <path id="Shape-10" data-name="Shape" class="cls-1" d="M171.46,29.82h4.3L186,53.67h-5.8l-2-5h-9.11l-2,5h-5.66Zm2,7-2.86,7.42h5.73Z"/>
      <path id="Shape-11" data-name="Shape" class="cls-1" d="M190.93,29.82H200c4.81,0,8.85,1.66,8.85,7.22,0,3.32-1.76,5.9-5.08,6.56l5.93,10.07H203.5l-4.88-9.54h-2.54v9.54h-5.15Zm5.15,9.87h3.06c1.89,0,4.36-.06,4.36-2.65,0-2.38-2.15-2.78-4-2.78h-3.39v5.43Z"/>
      <polygon id="Shape-12" data-name="Shape" class="cls-1" points="214.96 29.82 220.11 29.82 220.11 53.67 214.96 53.67 214.96 29.82"/>
      <polygon id="Shape-13" data-name="Shape" class="cls-1" points="227.47 29.82 234.5 29.82 244.46 46.39 244.53 46.39 244.53 29.82 249.67 29.82 249.67 53.67 242.9 53.67 232.67 36.71 232.61 36.71 232.61 53.67 227.47 53.67 227.47 29.82"/>
      <polygon id="Shape-14" data-name="Shape" class="cls-1" points="257.29 29.82 273.18 29.82 273.18 34.66 262.43 34.66 262.43 39.1 272.59 39.1 272.59 43.93 262.43 43.93 262.43 48.77 273.76 48.77 273.76 53.61 257.22 53.61 257.22 29.82 257.29 29.82"/>
      <path id="Shape-15" data-name="Shape" class="cls-1" d="M292.19,35.65a5,5,0,0,0-3.71-1.59c-1.43,0-3.45.66-3.45,2.45,0,4.38,10.81,1.53,10.81,9.88,0,5.3-4.24,7.81-9,7.81a11.14,11.14,0,0,1-7.88-3l3.64-4.11a5.75,5.75,0,0,0,4.5,2.26c1.69,0,3.58-.8,3.58-2.52,0-4.37-11-2-11-9.94,0-5.1,4.37-7.75,8.92-7.75a10.41,10.41,0,0,1,7.17,2.51Z"/>
      <polygon class="cls-2" points="44.64 0.79 102.24 0.79 102.24 6.08 44.64 6.08 44.64 0.79"/>
      <polygon class="cls-2" points="0 48.16 102.24 48.16 102.24 53.45 0 53.45 0 48.16"/>
      <polygon class="cls-2" points="0 36.34 102.24 36.34 102.24 41.62 0 41.62 0 36.34"/>
      <polygon class="cls-2" points="44.64 24.51 102.24 24.51 102.24 29.8 44.64 29.8 44.64 24.51"/>
      <polygon class="cls-2" points="44.64 12.68 102.24 12.68 102.24 17.97 44.64 17.97 44.64 12.68"/>
      <ellipse class="cls-1" cx="18.6" cy="27.15" rx="3.21" ry="3.3"/>
      <ellipse class="cls-1" cx="18.6" cy="15.33" rx="3.21" ry="3.3"/>
      <ellipse class="cls-1" cx="18.6" cy="3.43" rx="3.21" ry="3.3"/>
      <ellipse class="cls-1" cx="3.21" cy="27.15" rx="3.21" ry="3.3"/>
      <ellipse class="cls-1" cx="3.21" cy="15.33" rx="3.21" ry="3.3"/>
      <ellipse class="cls-1" cx="3.21" cy="3.43" rx="3.21" ry="3.3"/>
      <ellipse class="cls-1" cx="33.8" cy="27.15" rx="3.21" ry="3.3"/>
      <ellipse class="cls-1" cx="33.8" cy="15.33" rx="3.21" ry="3.3"/>
      <ellipse class="cls-1" cx="33.8" cy="3.43" rx="3.21" ry="3.3"/>
    </g>
  </g>
</svg>
