<svg xmlns="http://www.w3.org/2000/svg" width="81" height="32" viewBox="0 0 81 32" fill="none">
    <path fill-rule="evenodd" clip-rule="evenodd" d="M23.9723 16.0012C23.9723 23.1129 19.9765 28.1046 14.2513 28.142C8.52611 28.1046 4.52784 23.1129 4.5303 16.0012C4.53276 8.88958 8.52858 3.89793 14.2464 3.86297C19.9617 3.89793 23.9723 8.88958 23.9723 16.0012ZM14.7169 0H14.2538H14.1971L13.5714 0.0124854C9.71599 0.187281 6.4272 1.83035 4.06716 4.75693C1.76624 7.62856 0.5 11.6189 0.5 16.0012C0.5 20.3836 1.76624 24.3739 4.06716 27.2381C6.47155 30.2346 9.83177 31.8702 13.7956 31.9975H14.3277H14.9288C18.7792 31.8302 22.0729 30.1871 24.4281 27.2531C26.7339 24.3889 28.0026 20.3936 28.0026 16.0162C28.0026 11.6389 26.7339 7.63355 24.4281 4.7794C22.0212 1.76293 18.6635 0.122357 14.7169 0ZM42.1506 25.3253L33.346 0.67421H29.0447L40.1231 31.3283H44.1558L55.3008 0.67421H51.0266L42.1506 25.3253ZM69.3477 13.7139L70.0375 13.8563V13.8538L70.0398 13.8542C74.2056 14.7207 80.5 16.03 80.5 22.8557C80.5 25.9046 79.1722 28.3842 76.6619 30.0298C74.7502 31.2833 72.1512 32 69.5325 32C65.0981 32 61.5778 30.7914 59.3606 28.5041C57.5007 26.5888 56.5744 23.9894 56.6089 20.7806L56.6237 19.617H60.7131L60.6441 20.8655C60.5259 22.8582 61.0235 24.4738 62.1222 25.6599C63.6053 27.2606 66.2363 28.142 69.5325 28.142C72.1093 28.142 76.4697 27.0308 76.4697 22.8582C76.4697 19.1736 72.6856 18.3914 68.3022 17.4853L68.2982 17.4845L67.8573 17.3921C63.4574 16.4732 57.4317 15.2122 57.4317 8.7073C57.4317 5.92556 58.5969 3.62825 60.7993 2.06258C62.6716 0.73414 65.2164 0 67.9681 0C75.2084 0 79.5195 3.60328 79.7954 9.88592L79.8546 11.1145H75.8119L75.7701 9.9833C75.6075 6.03543 72.841 3.86048 67.9706 3.86048C64.97 3.86048 61.4645 5.13149 61.4645 8.7073C61.4645 12.0804 65.1116 12.8362 69.3368 13.7117L69.3477 13.7139Z" fill="#001526"/>
</svg>