<svg version="1.1" id="Layer_1" xmlns="http://www.w3.org/2000/svg" xmlns:xlink="http://www.w3.org/1999/xlink" x="0px" y="0px" viewBox="0 0 324.4 62" style="enable-background:new 0 0 324.4 62;" xml:space="preserve">
 <style type="text/css">
  .st0{fill:#FFD207;}
	.st1{fill-rule:evenodd;clip-rule:evenodd;fill:#FFFFFF;}
 </style>
 <g>
  <path class="st0" d="M324.4,49.2c0,7.1-6,12.8-13.4,12.8c-7.4,0-13.4-5.7-13.4-12.8s6-12.8,13.4-12.8
		C318.5,36.5,324.4,42.1,324.4,49.2z">
  </path>
  <path class="st1" d="M27.7,29.8h5c5.7,0,9.1-3.3,9.7-7.5c0.6-3.6-2.1-7.5-7.4-7.5h-4.7C30.3,14.8,27.7,29.8,27.7,29.8z M279.3,21.2
		l11.3-20.3h26l-39.3,59.5h-26.5l12.6-17L249,2.1l-9.8,58.2h-20.8l-12.8-27.5l-4.6,27.5h-20.8l10.1-59.5h21.4l12.4,26.6l4.5-26.6
		H274L279.3,21.2L279.3,21.2z M181.9,0.9l-10.1,59.5H151l-12.8-27.5l-4.6,27.5h-20.8l10.1-59.5h21.4l12.4,26.6L161,0.9L181.9,0.9
		L181.9,0.9z M41,0c14.5,0,24.2,7.4,24.3,19.4l3.1-18.6h47.2l-2.5,15h-25L86.8,23h22.5l-2.5,14.9H84.3L83,45.3h25.3l-2.5,15H58.4
		l5.4-32.2c-3.7,10.4-13.6,16.6-26.6,16.6H25.3l-2.7,15.6H0L10.2,0H41z">
  </path>
 </g>
</svg>