<?xml version="1.0" encoding="UTF-8" standalone="no"?>
<!-- Generator: Adobe Illustrator 23.1.1, SVG Export Plug-In . SVG Version: 6.00 Build 0)  -->

<svg
   width="840.3"
   height="285.99"
   version="1.1"
   viewBox="0 0 840.3 285.99"
   xml:space="preserve"
   id="svg6"
   sodipodi:docname="logo (4).svg"
   inkscape:version="1.3.2 (091e20e, 2023-11-25, custom)"
   xmlns:inkscape="http://www.inkscape.org/namespaces/inkscape"
   xmlns:sodipodi="http://sodipodi.sourceforge.net/DTD/sodipodi-0.dtd"
   xmlns:xlink="http://www.w3.org/1999/xlink"
   xmlns="http://www.w3.org/2000/svg"
   xmlns:svg="http://www.w3.org/2000/svg"><defs
   id="defs6" /><sodipodi:namedview
   id="namedview6"
   pagecolor="#ffffff"
   bordercolor="#000000"
   borderopacity="0.25"
   inkscape:showpageshadow="2"
   inkscape:pageopacity="0.0"
   inkscape:pagecheckerboard="0"
   inkscape:deskcolor="#d1d1d1"
   inkscape:zoom="1.6684518"
   inkscape:cx="420.14999"
   inkscape:cy="142.9469"
   inkscape:window-width="1920"
   inkscape:window-height="1009"
   inkscape:window-x="-8"
   inkscape:window-y="-8"
   inkscape:window-maximized="1"
   inkscape:current-layer="svg6" />
<style
   type="text/css"
   id="style1">
	.st0{display:none;fill:#FFFFFF;}
	.st1{clip-path:url(#SVGID_2_);}
</style>
<g
   transform="translate(-82.330642,-328.45889)"
   id="g6">
	<defs
   id="defs1">
		<rect
   id="SVGID_1_"
   x="82.919998"
   y="355.42999"
   width="840.32001"
   height="286" />
	</defs>
	<clipPath
   id="SVGID_2_">
		<use
   width="100%"
   height="100%"
   xlink:href="#SVGID_1_"
   id="use1" />
	</clipPath>
	
	
	
	
	
	
	
	
	
<path
   class="cls-1"
   d="m 48.63,197.63 c 12.86,0 24.79,-4.17 33.62,-11.74 9.46,-8.12 14.47,-19.25 14.47,-32.19 0,-23.25 -18.08,-43.45 -35.55,-62.99 L 58.51,87.73 C 41.75,68.62 27.88,51.27 27.88,32.32 27.88,6.84 43.17,4.09 49.75,4.09 c 9.98,0 21.87,5.42 21.87,31.27 v 2.84 c 0,0 23.46,0 23.46,0 L 95.05,37.92 C 92.49,15.95 73.79,0 50.57,0 38.26,0 26.9,3.71 18.58,10.46 9.5,17.82 4.7,28.16 4.7,40.34 c 0,23.81 18.04,43.78 35.48,63.08 l 1.36,1.5 c 17.51,19.56 32.01,37.41 32.01,57.89 0,22.67 -12.82,30.72 -23.8,30.72 -15.02,0 -24.36,-11.98 -24.36,-31.27 0,-2.7 0,-6.07 0.28,-8.54 l 0.03,-0.28 H 0 v 0.25 c 0,25.05 20.91,43.93 48.63,43.93 z"
   id="path1-9"
   style="stroke-width:0px"
   transform="matrix(1.1658389,0,0,1.1658389,83.109743,361.61588)" /><polygon
   class="cls-1"
   points="674.96,189.8 613.67,189.8 613.67,32.87 589.62,32.87 589.62,195.2 674.96,195.2 "
   id="polygon1"
   style="stroke-width:0px"
   transform="matrix(1.1658389,0,0,1.1658389,83.109743,361.61588)" /><rect
   class="cls-1"
   x="527.78003"
   y="32.860001"
   width="23.959999"
   height="162.34"
   id="rect1-0"
   style="stroke-width:0px"
   transform="matrix(1.1658389,0,0,1.1658389,83.109743,361.61588)" /><rect
   class="cls-1"
   x="695.21002"
   y="32.860001"
   width="23.959999"
   height="162.34"
   id="rect2"
   style="stroke-width:0px"
   transform="matrix(1.1658389,0,0,1.1658389,83.109743,361.61588)" /><polygon
   class="cls-1"
   points="171.73,195.2 171.77,38.24 208.51,38.24 208.51,32.87 111.05,32.87 111.05,38.24 147.79,38.24 147.79,195.2 "
   id="polygon2"
   style="stroke-width:0px"
   transform="matrix(1.1658389,0,0,1.1658389,83.109743,361.61588)" /><path
   class="cls-1"
   d="m 423.35,30.37 c -44.85,0 -77.39,35.12 -77.39,83.51 0,23.56 7.87,44.95 22.17,60.25 14.16,15.15 33.77,23.5 55.23,23.5 44.72,0 77.18,-35.22 77.18,-83.75 0,-48.53 -32.46,-83.51 -77.18,-83.51 z m 52.81,83.51 c 0,24.33 -4.91,44.53 -14.19,58.41 -9.22,13.79 -22.57,21.07 -38.62,21.07 -16.05,0 -29.86,-7.59 -39.11,-21.94 -8.98,-13.94 -13.72,-33.84 -13.72,-57.53 0,-23.69 4.88,-44.38 14.12,-58.18 9.2,-13.75 22.59,-21.03 38.71,-21.03 32.58,0 52.81,30.35 52.81,79.2 z"
   id="path2-5"
   style="stroke-width:0px"
   transform="matrix(1.1658389,0,0,1.1658389,83.109743,361.61588)" /><path
   class="cls-1"
   d="m 292.69,129.03 c 11.15,-3.14 20.61,-10.55 26.89,-20.1 0.18,-0.27 0.36,-0.54 0.53,-0.82 0.2,-0.31 0.39,-0.61 0.59,-0.93 0.19,-0.31 0.38,-0.62 0.56,-0.94 0.19,-0.31 0.37,-0.63 0.54,-0.95 0.53,-0.95 1.03,-1.92 1.48,-2.91 0.17,-0.34 0.33,-0.69 0.47,-1.04 0.15,-0.33 0.29,-0.67 0.43,-1.01 0.29,-0.68 0.55,-1.38 0.8,-2.08 0.12,-0.34 0.24,-0.69 0.35,-1.03 0.24,-0.7 0.46,-1.41 0.65,-2.12 0.11,-0.38 0.22,-0.76 0.3,-1.14 0.09,-0.34 0.17,-0.68 0.25,-1.03 0.26,-1.05 0.47,-2.1 0.64,-3.17 0.18,-1.07 0.32,-2.15 0.42,-3.24 0.12,-1.09 0.18,-2.19 0.21,-3.29 0.01,-0.33 0.02,-0.65 0.02,-0.98 0.01,-0.07 0.01,-0.15 0,-0.22 q 0,0 0,-0.02 c 0.01,-0.15 0.01,-0.3 0.01,-0.45 h -0.01 C 327.59,55.72 308.05,34.11 278.32,32.88 L 226.27,32.86 V 195.2 h 24.03 v -63.78 h 20.03 l 37.3,63.78 h 23.89 z m -15.11,-5.12 c -0.33,0.12 -0.66,0.23 -0.99,0.34 -0.29,0.1 -0.58,0.2 -0.87,0.29 -0.43,0.13 -0.86,0.26 -1.3,0.38 -0.49,0.14 -0.98,0.27 -1.48,0.39 -3.2,0.79 -6.48,1.27 -9.74,1.44 -2.17,0.12 -4.32,0.17 -6.5,0.17 h -5.03 c -0.17,0 -0.34,0 -0.52,0 0,0 -0.06,0 -0.07,0 0,0 -0.72,0 -0.73,-0.02 -0.01,-15.11 -0.02,-30.23 -0.03,-45.34 0,-14.97 0.01,-29.93 0.02,-44.9 2.85,-0.09 5.71,-0.1 8.57,-0.03 1.42,0.04 2.85,0.1 4.28,0.18 11.11,0.6 22.49,4.6 29.93,13.2 7.61,8.79 10.49,20.62 10.53,32 0.01,0.08 0,0.15 0,0.23 0,0.28 0,0.56 -0.01,0.84 -0.01,0.45 -0.02,0.89 -0.04,1.34 0,0.09 -0.01,0.17 -0.02,0.26 -0.01,0.38 -0.04,0.77 -0.07,1.15 -0.07,1.15 -0.18,2.3 -0.33,3.45 -0.05,0.38 -0.1,0.77 -0.16,1.15 -0.16,1.15 -0.36,2.29 -0.59,3.42 -0.11,0.52 -0.23,1.04 -0.35,1.56 -0.23,0.96 -0.49,1.92 -0.78,2.87 -1.41,4.7 -3.51,9.17 -6.46,13.13 -0.11,0.15 -0.22,0.31 -0.34,0.46 -0.44,0.57 -0.89,1.13 -1.37,1.68 -4.18,4.84 -9.62,8.22 -15.55,10.36 z"
   id="path3-1"
   style="stroke-width:0px"
   transform="matrix(1.1658389,0,0,1.1658389,83.109743,361.61588)" /></g><rect
   class="st0"
   x="-82.93"
   y="-355.42999"
   width="1000"
   height="1000"
   id="rect1" />

</svg>
