<svg xmlns="http://www.w3.org/2000/svg" width="230" height="49" viewBox="0 0 230 49" ><g fill="none" fill-rule="evenodd"><path fill="#233982" d="M163.715 7.66s3.891-.371 4.05 1.573c.177 2.188-4.77 2.32-4.722 2.067l.672-3.64zm-3.299 15.615l1.027-5.32 1.55-.001s.176.008.489.009l1.15 6.033.008.004h10.713l-1.476-8.322c2.338-1.352 4.123-3.493 4.123-6.89 0-8.409-10.525-7.777-14.79-7.777h-9.579s.555 3.491.179 5.225C153.433 7.97 150 24 150 24h6.224c1.366-.429 2.77-.695 4.192-.725zm-31.954.292c1.216-.253 2.386-.131 3.658.075.365.059.671.187.934.358h3.455l.05-.122c-.016.026.017-.047.128-.287-.044.096-.086.192-.128.287.05-.084.579-1.153.73-1.372.631-.916 1.269-1.809 2.394-2.165.544-.172 1.13-.256 1.69-.39.054-.016.107-.034.165-.046 1.122-.262 2.172-.4 3.3-.097.125.034.244.074.357.12 1.504.045 2.85.747 3.415 2.096l1.13-4.471h-12.077l.336-1.725h9.574l1.643-6.497h-9.95l.373-1.915h11.745L153 1.026h-12.114L140.89 1h-11.212s.56 3.492.18 5.227C129.478 7.963 126 24 126 24h.501c.425-.065.85-.124 1.26-.269.245-.085.478-.137.7-.164m-42.983.432c14.743.106 14.74-8.586 17.522-22.905L93.164 1l-2.879 14.226c-.033.169-.252 2.568-2.72 2.568-2.467 0-1.36-4.417-1.36-4.417l2.088-12.345-10.817.032s.364 1.706.222 4.762c-.143 3.055-6.963 18.067 7.78 18.173"/><path fill="#233982" d="M113.715 7.411s3.83-.361 3.83 2.331c0 3.033-4.977 3.511-4.907 3.16l1.077-5.49zm-4.416 16.294c.264.071.495.176.707.295h.455l.886-4.519S128 20.224 128 9.491c0-9.168-11.68-8.48-16.413-8.48h-7.889s.564 3.49.18 5.225C103.495 7.97 100 24 100 24h1.44c2.531-.78 5.185-1.02 7.859-.295z"/><path fill="#FFEC00" d="M136.395 23.743c.07-.165.142-.33.217-.496-.19.415-.244.543-.217.496"/><path fill="#233982" d="M65.94 9.525h10.012C76.202 4.046 75.84 0 65.358 0c-10.48 0-13.745 4.81-13.812 9.144-.067 4.333 5.376 4.558 9.19 4.533 5.438-.034 4.402 3.849 1.805 3.849-1.708 0-2.364-.736-2.324-1.85l.045-1.195H50.037c-.25 5.479.49 9.519 10.97 9.519.838 0 1.624-.034 2.372-.093 1.695-.133 3.163-.41 4.43-.8 5.162-1.59 6.961-5.051 7.01-8.253.067-4.333-5.375-4.557-9.189-4.532-5.34.036-3.463-3.711-1.29-3.711 1.71 0 1.672.871 1.668 1.095l-.068 1.82z"/><path fill="#FFEC00" d="M164.495 23.503h.012l-.014-.006z"/><path fill="#E31323" d="M221.254 47.489H209.08v-.069a13.58 13.58 0 01-1.512-.118 9.265 9.265 0 01-1.544-.373 7.419 7.419 0 01-1.339-.608c-.431-.245-.896-.531-1.42-.846l-.104-.133c-.072-.042-.112-.136-.135-.288a5.54 5.54 0 00-.084-.451c-.03-.147-.067-.282-.093-.414-.034-.127-.08-.201-.132-.224.11-.959.257-1.817.426-2.56.025-.112.055-.227.083-.34a37.83 37.83 0 01-1.03.558c-.456.237-.858.45-1.203.64-1.204.663-2.23 1.22-3.08 1.67-.856.447-1.637.842-2.357 1.187-.712.338-1.409.65-2.072.929-.667.272-1.408.575-2.231.897l-.442.19a4.251 4.251 0 01-.996.301 5.11 5.11 0 01-.876.083c-.744 0-1.33-.202-1.763-.608-.423-.388-.706-.819-.841-1.301a3.709 3.709 0 01-.109-1.553c.068-.554.21-1.148.433-1.778.22-.628.485-1.297.79-2.003.618-1.411 1.204-2.601 1.76-3.572.554-.972.97-1.766 1.241-2.389l.335-.766c.12-.28.223-.568.31-.864-.26.038-.578.082-.972.126-.389.043-.816.086-1.286.125-.465.045-.936.082-1.407.116-.474.032-.922.06-1.343.082l.882-2.023c.003.042.012.071.032.08.018.012.032.04.057.083a1.09 1.09 0 01.086-.417l-.092.061.073-.093c.049-.213.085-.366.096-.448.018-.087.037-.164.064-.224h.594c.012-.132.035-.237.074-.324.054-.125.205-.317.445-.574-.011-.022-.008-.054.01-.097.027-.066.056-.105.089-.126l-.51.35.07-.608c.438-.11.947-.191 1.536-.256.582-.068 1.156-.125 1.72-.193.56-.066 1.047-.13 1.46-.19.41-.066.644-.142.702-.224.102-.235.272-.587.505-1.047.234-.458.477-.923.738-1.395l.687-1.229c.195-.356.305-.552.323-.597.088-.147.198-.361.33-.638.13-.276.267-.575.408-.9.137-.316.275-.634.413-.946.133-.304.26-.567.374-.78.373-.148.715-.28 1.035-.383.32-.11.578-.186.768-.224l.057-.133c.568-.147.968-.268 1.187-.35.223-.087.38-.151.458-.192.088-.041.149-.069.186-.08.035-.01.165-.018.384-.018.35 0 .832.116 1.45.351l.12.033a15.49 15.49 0 01-.96 3.013c-.297.685-.66 1.44-1.08 2.26a49.062 49.062 0 00-1.324 2.805l-.138.318a76.953 76.953 0 004.635-.781c1.647-.334 3.313-.5 4.996-.5.468 0 .854-.003.14.05-.133.01-.291.028-.478.044l-.194.448c.05.086.103.159.15.214.059.048.1.098.117.143-.2.064-.419.13-.66.206-.24.077-.497.153-.774.242.26-.044.517-.089.778-.132.256-.037.506-.082.742-.126-.007.066-.045.103-.118.115a1.065 1.065 0 00-.214.045c-.465.512-.85.934-1.158 1.267-.31.329-.56.58-.758.75-.193.175-.34.289-.43.357-.094.064-.152.092-.174.092-.022 0-.022-.028.007-.092l.015-.034c.045 0 .002.148-.13.45-.84.168-1.69.326-2.561.463-.863.137-1.783.356-2.74.657a15.82 15.82 0 01-1.972.498c-.648.114-1.163.175-1.536.175l-.02-.034c-.154.405-.344.947-.573 1.62-.23.672-.413 1.372-.558 2.101-.067-.088-.132-.173-.182-.26-.047-.086-.1-.166-.152-.255a1.795 1.795 0 00-.179-.258c.002.089-.018.235-.066.45l-1.499 3.43a7.277 7.277 0 00-.278.754 5.047 5.047 0 00-.175.73c-.03.226-.036.418-.016.567.026.146.085.223.199.223.195 0 .611-.137 1.243-.416.634-.278 1.36-.645 2.17-1.104a30.54 30.54 0 002.469-1.57 17.817 17.817 0 002.231-1.845c.314-.174.53-.322.637-.446a.546.546 0 01.431-.198c.128 0 .26.072.384.215.122.136.312.265.561.397.27-.065.54-.158.808-.272.242-.105.45-.164.612-.174l.172-.227a26.912 26.912 0 012.705-3.007 34.173 34.173 0 013.304-2.806 29.167 29.167 0 013.62-2.324 23.104 23.104 0 013.623-1.586c1.188-.395 2.297-.592 3.32-.592.655 0 1.467.149 2.426.448l-.085.192c.937.301 1.623.805 2.06 1.509.438.699.678 1.534.72 2.484.044.947-.07 1.969-.339 3.058-.27 1.089-.63 2.16-1.086 3.205a12.239 12.239 0 01-1.646 2.756c-.65.81-1.384 1.356-2.206 1.635l-.096.225c-.214.037-.49.076-.814.11-.333.033-.675.07-1.02.116-.344.037-.675.088-.976.14-.31.054-.54.132-.7.241a1.44 1.44 0 01-.636.192 9.64 9.64 0 01-.87.034c-.22-.045-.455-.082-.704-.118a7.741 7.741 0 01-.7-.108h.027a97.996 97.996 0 00-2.52-.448 29.104 29.104 0 01-1.84-.356c-.741 2.797 2.835 3.705 6.74 3.982h5.844l-2.195 2.748zM28.242 32.233a20.8 20.8 0 012.43-1.855 35.959 35.959 0 013.059-1.8h-.027c1.069-.55 2.132-.94 3.193-1.164a16.153 16.153 0 013.354-.34l.1-.224c1.244 0 2.372.158 3.378.482a8.203 8.203 0 012.63 1.363 6.586 6.586 0 011.792 2.16c.446.857.717 1.82.816 2.887a.77.77 0 01.226-.066c.133 0 .206.142.227.416.022.279.003.618-.046 1.011-.054.395-.136.81-.254 1.247a7.652 7.652 0 01-.392 1.17c-.616 1.415-1.607 2.731-2.976 3.962a23.801 23.801 0 01-4.563 3.22 27.12 27.12 0 01-5.128 2.179c-1.735.534-3.285.803-4.637.803-1.487 0-2.9-.361-4.242-1.09h.033a3.37 3.37 0 01-.211-.12 25.315 25.315 0 01-4.481 1.554c-1.632.397-3.25.656-4.862.786a61.69 61.69 0 01-4.556.186c-2.33 0-4.284-.217-5.858-.664-1.576-.444-2.86-1.018-3.85-1.73-.982-.711-1.715-1.503-2.201-2.37C.71 43.37.376 42.497.2 41.633a9.515 9.515 0 01-.183-2.468c.058-.775.137-1.398.247-1.876.258-1.13.73-2.32 1.414-3.55a25.35 25.35 0 012.402-3.56 27.28 27.28 0 012.895-3.097c1.024-.937 1.995-1.673 2.927-2.206a41.34 41.34 0 002.211-1.327 40.308 40.308 0 012.662-1.56c.944-.51 1.909-.948 2.908-1.312 1.005-.362 1.982-.541 2.943-.541.588 0 1.386.128 2.378.382 1 .249 1.973.654 2.92 1.203a8.342 8.342 0 012.416 2.158c.664.89.988 1.942.953 3.18l-.215.097c-.06.025-.15.071-.26.137-.074.316-.113.56-.117.713a1.756 1.756 0 01-.202-.333c-.873.696-1.7 1.043-2.471 1.043-.651 0-1.215-.216-1.668-.662-.1.152-.207.308-.312.452a5.019 5.019 0 00-.316.446c-2.17 0-3.675-1.172-4.507-3.51a.882.882 0 00-.463-.518 1.482 1.482 0 00-.641-.146c-.493 0-.905.162-1.223.48-.73.726-1.478 1.462-2.251 2.196a31.963 31.963 0 00-2.18 2.305c-.68.785-1.274 1.62-1.8 2.484a9.359 9.359 0 00-1.115 2.725 8.273 8.273 0 00-.164 2.564c.076.88.315 1.828.704 2.84h.509c.225.921.627 1.633 1.207 2.158.58.519 1.25.899 1.999 1.132a9.718 9.718 0 002.46.428c.895.049 1.774.075 2.64.075a14.4 14.4 0 002.478-.235c.88-.163 1.733-.381 2.576-.664l.225-.077a8.252 8.252 0 01-.146-.428c-.255-.82-.345-1.711-.274-2.674.07-.962.333-1.964.791-3.014.69-1.58 1.92-3.196 3.685-4.84zm5.086 10.485a8.008 8.008 0 001.75.192c.83 0 1.577-.192 2.246-.575a8.074 8.074 0 001.79-1.395 9.249 9.249 0 001.3-1.7c.34-.587.606-1.094.794-1.523.467-1.07.721-1.858.771-2.374.054-.512.008-.908-.134-1.185a1.968 1.968 0 00-.574-.673c-.245-.17-.423-.448-.536-.833-.057-.277-.148-.47-.274-.573-.158.103-.285.164-.39.173-.1.015-.208.03-.32.052a4.23 4.23 0 00-.355.076c-.552.132-.487.513-.391-.274.026-.213.067-.498.116-.864l.006-.091c-.006.014-.068.053-.192.106-.125.057-.26.11-.411.16a9.09 9.09 0 01-.462.147c-.146.044-.254.06-.316.06-.03-.036-.036-.098-.025-.173a.562.562 0 00-.009-.209l-.015.033c-.041-.301-.29-.45-.75-.45-.764 0-1.62.439-2.573 1.313-.945.876-1.768 2.107-2.46 3.689a10.24 10.24 0 00-.764 2.614 6.608 6.608 0 00.071 2.417h-.025c.25.92.958 1.536 2.132 1.86zm31.008 5.507c-.343-.212-.585-.454-.73-.722a2.275 2.275 0 01-.27-.879.13.13 0 01-.037.048c-.017.01-.034.039-.054.083a18.636 18.636 0 01-.585-2.938 25.776 25.776 0 01-.182-2.736c-.01-.88-.006-1.698.01-2.465.023-.771.008-1.478-.044-2.118a33.074 33.074 0 00-1.55 2.467 96.478 96.478 0 00-1.497 2.724c-.49.92-.966 1.815-1.422 2.691a118.4 118.4 0 01-1.281 2.375c-.28.043-.539.071-.774.082-.232.004-.48.01-.742.01-.263 0-.486-.01-.668-.044a18.326 18.326 0 01-.513-.099c-.162-.032-.326-.065-.5-.093a3.609 3.609 0 00-.649-.048c-.111 0-.235.01-.378.032-.136.016-.264.03-.369.03a.348.348 0 01-.202-.062c.04.061.034.137-.004.224-.434-.3-.783-.859-1.031-1.684-.252-.82-.438-1.778-.55-2.868a32.169 32.169 0 01-.162-3.495c.005-1.24.045-2.418.12-3.539.076-1.125.174-2.116.3-2.98.129-.87.262-1.484.398-1.843.178-.41.455-.71.823-.915.373-.201.783-.35 1.222-.43.44-.089.884-.132 1.333-.132h2.163c.38 0 .816.02 1.296.067.005.294-.015.682-.045 1.154-.028.47-.058.945-.08 1.42-.024.481-.047.924-.074 1.337a8.05 8.05 0 00-.02.863 53.547 53.547 0 015.138-5.835.316.316 0 01.074-.095c.04-.044.07-.077.092-.098.02-.023.052-.053.093-.099l-.013.033c.245-.273.553-.579.918-.912.365-.329.732-.498 1.106-.498.61 0 1.146-.104 1.608-.319l-.047.035a3.703 3.703 0 011.507-.293c.195 0 .401.017.615.05.215.035.444.071.687.117l-.18.413c.519 0 .86.09 1.015.258.158.171.209.461.16.867l.028-.063c-.118 1.37-.258 2.74-.417 4.113a193.784 193.784 0 00-.452 4.153 84.061 84.061 0 00-.302 4.134 32.452 32.452 0 00.073 4.07c.062.065.098.215.101.448.011.235-.005.487-.032.756-.035.269-.076.53-.132.787a3.313 3.313 0 01-.139.51c-.057.13-.203.31-.44.545a5.76 5.76 0 01-.86.706c-.344.235-.72.444-1.129.623a2.912 2.912 0 01-1.197.275c-.196 0-.313-.076-.36-.225-.075.016-.15.032-.234.045-.08.01-.173.016-.284.016l-.249-.034zm8.968-1.089c-.414-1.155-.66-2.527-.725-4.118a34.464 34.464 0 01.159-4.982c.178-1.73.456-3.468.835-5.209a52.107 52.107 0 011.253-4.791l.385-.124.169-.387c.53-.216.906-.373 1.125-.478.22-.11.387-.197.486-.258.105-.066.203-.119.284-.163.084-.038.246-.115.494-.225l.252-.573c.28 0 .557-.014.83-.033.272-.024.496-.033.669-.033.133 0 .33.01.595.033.257.02.488.033.689.033-.12.876-.226 1.771-.307 2.69-.084.92-.166 1.839-.238 2.757-.076.92-.13 1.81-.172 2.675-.035.865-.065 1.674-.088 2.417.446-.574.952-1.193 1.5-1.86a41.896 41.896 0 011.717-1.937 20.977 20.977 0 011.787-1.7c.602-.499 1.179-.88 1.727-1.138l.152-.348c.508-.216.843-.345 1.001-.385.163-.045.347-.077.55-.098.341-.382.693-.651 1.054-.8.364-.15.758-.223 1.193-.223.377 0 .741.034 1.098.111.365.076.746.174 1.147.303h-.033c.33.104.558.182.708.227.14.044.194.115.147.224-.026.06-.16.185-.39.367-.234.179-.53.41-.894.688-.513.382-1.064.843-1.645 1.379a40.756 40.756 0 00-1.767 1.718 39.274 39.274 0 00-1.725 1.886 33.45 33.45 0 00-1.565 1.974c-.636.853-1.243 1.697-1.827 2.532a77.447 77.447 0 01-1.655 2.292 28.89 28.89 0 01-1.461 1.811c-.454.514-.841.865-1.165 1.055l-.264.609c-.309 0-.69.13-1.139.387-.451.256-.953.47-1.506.64l-.212.482h-.552a2.005 2.005 0 01-.58.415 2.291 2.291 0 01-.534.175 4.88 4.88 0 01-.722.083h.1c-.023 0-.15.032-.37.092l-.57-.192zm14.446-1.794c-.071-.042-.114-.136-.138-.288a5.54 5.54 0 00-.084-.451c-.03-.147-.065-.282-.093-.414-.034-.127-.078-.201-.131-.224.11-.959.256-1.817.425-2.56.176-.75.44-1.57.787-2.47l-.053-.03.168.06a2.321 2.321 0 01-.248-.111l-.293-.147c.409-.935 1.005-1.92 1.796-2.948a26.512 26.512 0 012.704-3.007 34.28 34.28 0 013.303-2.806 29.542 29.542 0 013.62-2.324 23.104 23.104 0 013.623-1.586c1.188-.395 2.297-.592 3.32-.592.653 0 1.467.149 2.426.448l-.084.192c.937.301 1.623.805 2.059 1.509.437.699.679 1.534.72 2.484.047.947-.07 1.969-.34 3.058a19.696 19.696 0 01-1.084 3.205 12.199 12.199 0 01-1.645 2.756c-.65.81-1.386 1.356-2.208 1.635l-.097.225c-.212.037-.486.076-.814.11-.332.033-.674.07-1.016.116-.347.037-.676.088-.98.14-.307.054-.538.132-.698.241a1.448 1.448 0 01-.635.192c-.251.023-.54.034-.869.034a13.261 13.261 0 00-.705-.118 7.733 7.733 0 01-.702-.108h.03a99.699 99.699 0 00-2.524-.448 29.192 29.192 0 01-1.839-.356c-.198.75-.112 1.307.25 1.668l-.014-.033c.422.427 1.065.695 1.925.804.859.105 1.702.16 2.535.16 1.308 0 2.65-.142 4.019-.432 1.37-.292 2.673-.54 3.9-.755-.305.301-.513.507-.613.621-.11.121-.19.214-.237.276h.721c-.383.427-.632.705-.74.836-.11.125-.198.262-.265.417a24.087 24.087 0 01-2.717 1.422c-.896.398-1.839.715-2.828.961-.992.247-2.072.427-3.235.548a40.459 40.459 0 01-3.94.175 14.5 14.5 0 01-2.058-.125 9.228 9.228 0 01-1.543-.373 7.482 7.482 0 01-1.339-.608c-.428-.245-.896-.531-1.419-.846l-.103-.133zm38.272 2.883c-.343-.212-.585-.454-.73-.722a2.259 2.259 0 01-.27-.879.11.11 0 01-.039.048.223.223 0 00-.051.083 18.418 18.418 0 01-.586-2.938 25.767 25.767 0 01-.181-2.736c-.011-.88-.005-1.698.01-2.465.024-.771.008-1.478-.044-2.118a33.072 33.072 0 00-1.551 2.467 96.454 96.454 0 00-1.496 2.724c-.491.92-.966 1.815-1.42 2.691-.463.877-.89 1.669-1.284 2.375a7.526 7.526 0 01-.772.082c-.232.004-.48.01-.744.01-.263 0-.487-.01-.67-.044a17.19 17.19 0 01-.508-.099c-.165-.032-.33-.065-.505-.093a3.562 3.562 0 00-.647-.048c-.111 0-.234.01-.377.032-.136.016-.262.03-.37.03a.359.359 0 01-.202-.062c.04.061.036.137-.003.224-.433-.3-.784-.859-1.033-1.684-.25-.82-.436-1.778-.546-2.868a31.41 31.41 0 01-.164-3.495c.005-1.24.044-2.418.12-3.539a40.86 40.86 0 01.3-2.98c.128-.87.26-1.484.395-1.843.18-.41.458-.71.824-.915a4.19 4.19 0 011.224-.43 6.695 6.695 0 011.33-.132h2.165c.378 0 .816.02 1.297.067.005.294-.015.682-.048 1.154-.026.47-.055.945-.078 1.42-.026.481-.045.924-.072 1.337a7.542 7.542 0 00-.02.863c.728-.963 1.51-1.92 2.337-2.871a55.502 55.502 0 012.798-2.964.342.342 0 01.075-.095c.04-.044.074-.077.09-.098a1.4 1.4 0 00.095-.099l-.012.033c.247-.273.553-.579.916-.912.367-.329.733-.498 1.108-.498.608 0 1.145-.104 1.607-.319l-.046.035c.434-.192.936-.293 1.507-.293.194 0 .4.017.615.05.215.035.443.071.686.117l-.18.413c.52 0 .861.09 1.017.258.153.171.207.461.158.867l.027-.063c-.115 1.37-.256 2.74-.414 4.113a193.78 193.78 0 00-.454 4.153 86.607 86.607 0 00-.303 4.134 32.074 32.074 0 00.077 4.07c.06.065.095.215.1.448.009.235-.006.487-.034.756-.032.269-.074.53-.131.787a3.06 3.06 0 01-.14.51c-.057.13-.2.31-.437.545a6.01 6.01 0 01-.863.706 6.956 6.956 0 01-1.126.623c-.404.182-.81.275-1.2.275-.194 0-.312-.076-.359-.225-.076.016-.15.032-.232.045-.085.01-.175.016-.288.016l-.248-.034zm10.802-1.984c-.134-.045-.166-.148-.092-.32-.243.304-.513.45-.816.45-.11 0-.231-.022-.369-.066a.47.47 0 01-.272-.196h-1.703a39.18 39.18 0 01-.122-3.73c.026-1.084.138-2.15.347-3.205.212-1.063.531-2.19.95-3.381.43-1.199 1-2.62 1.718-4.267.288-.662.56-1.203.813-1.634.25-.43.5-.773.746-1.041.252-.267.484-.455.703-.562.227-.105.45-.171.677-.19l.084-.192a6.026 6.026 0 011.6-.226c1.142 0 1.817.208 2.043.624.218.422.192 1.045-.087 1.875-.275.837-.699 1.883-1.27 3.14-.575 1.265-1.093 2.735-1.573 4.426-.216.75-.4 1.493-.547 2.242a149.7 149.7 0 00-.424 2.117 37.231 37.231 0 01-.367 1.794c-.13.536-.26.963-.398 1.28-.18.411-.392.696-.642.87l-.285.126a.182.182 0 00.07-.082.362.362 0 01.116-.112l-.9.26zm7.64-20.736c-.858.47-1.65.798-2.366.991a7.997 7.997 0 01-2.06.288c-.781 0-1.262-.207-1.427-.621-.17-.417-.089-1.004.237-1.746.051-.068.089-.132.116-.189a.383.383 0 00.033-.12.517.517 0 01.047-.14c.047-.109.14-.268.277-.482.131-.214.386-.564.75-1.055.199-.044.485-.11.857-.194.378-.087.709-.167 1.01-.255h-.033c.476-.13.864-.197 1.17-.197a1.5 1.5 0 01.545.098l-.056.126c.005.043.067.075.185.098.127.022.222.043.306.062.123-.04.247-.072.365-.094.12-.023.23-.034.345-.034.345 0 .562.105.652.308.087.203.103.443.062.714-.044.28-.104.56-.168.838-.067.28-.06.482.013.608a5.047 5.047 0 00-.255.355 5.091 5.091 0 01-.248.352l-.357.29zm-2.988 19.837c-.07-.042-.114-.136-.139-.288a4.777 4.777 0 00-.082-.451c-.031-.147-.065-.282-.092-.414-.035-.127-.08-.201-.132-.224.111-.959.255-1.817.424-2.56.176-.75.439-1.57.788-2.47l-.054-.03.169.06a2.316 2.316 0 01-.249-.111l-.293-.147c.409-.935 1.007-1.92 1.796-2.948a26.535 26.535 0 012.706-3.007 33.801 33.801 0 013.303-2.806 29.241 29.241 0 013.62-2.324 23.076 23.076 0 013.62-1.586c1.19-.395 2.3-.592 3.323-.592.654 0 1.465.149 2.426.448l-.084.192c.937.301 1.622.805 2.058 1.509.438.699.678 1.534.721 2.484.044.947-.07 1.969-.34 3.058-.27 1.089-.63 2.16-1.086 3.205a12.093 12.093 0 01-1.646 2.756c-.647.81-1.386 1.356-2.205 1.635l-.098.225a12.07 12.07 0 01-.813.11c-.334.033-.675.07-1.018.116a15.49 15.49 0 00-.977.14c-.31.054-.539.132-.7.241a1.452 1.452 0 01-.637.192c-.25.023-.54.034-.868.034a13.35 13.35 0 00-.703-.118 7.89 7.89 0 01-.704-.108h.029a98.104 98.104 0 00-2.523-.448 29.518 29.518 0 01-1.837-.356c-.2.75-.114 1.307.249 1.668l-.015-.033c.424.427 1.066.695 1.927.804.858.105 1.701.16 2.533.16 1.31 0 2.65-.142 4.019-.432 1.372-.292 2.672-.54 3.899-.755-.303.301-.512.507-.612.621a6.77 6.77 0 00-.237.276h.721c-.381.427-.632.705-.74.836-.11.125-.196.262-.263.417a24.368 24.368 0 01-2.719 1.422c-.894.398-1.838.715-2.829.961-.992.247-2.071.427-3.234.548-1.163.115-2.48.175-3.94.175-.81 0-1.495-.043-2.058-.125a9.192 9.192 0 01-1.542-.373 7.347 7.347 0 01-1.338-.608c-.43-.245-.9-.531-1.419-.846l-.105-.133zm38.274 2.883c-.344-.212-.585-.454-.731-.722a2.31 2.31 0 01-.27-.879.115.115 0 01-.038.048c-.015.01-.034.039-.051.083a18.423 18.423 0 01-.587-2.938 25.25 25.25 0 01-.181-2.736 83.03 83.03 0 01.008-2.465c.025-.771.008-1.478-.041-2.118-.525.749-1.04 1.57-1.554 2.467a101.75 101.75 0 00-1.494 2.724c-.491.92-.968 1.815-1.421 2.691-.461.877-.89 1.669-1.282 2.375a7.56 7.56 0 01-.774.082c-.232.004-.482.01-.742.01-.265 0-.487-.01-.67-.044a17.28 17.28 0 01-.509-.099c-.166-.032-.33-.065-.503-.093a3.604 3.604 0 00-.648-.048c-.112 0-.235.01-.377.032-.138.016-.265.03-.37.03a.348.348 0 01-.202-.062c.04.061.034.137-.006.224-.432-.3-.781-.859-1.03-1.684-.252-.82-.437-1.778-.548-2.868a31.899 31.899 0 01-.164-3.495c.007-1.24.043-2.418.12-3.539a40.86 40.86 0 01.3-2.98c.128-.87.262-1.484.396-1.843.179-.41.458-.71.824-.915.375-.201.785-.35 1.223-.43a6.722 6.722 0 011.332-.132h2.162c.38 0 .819.02 1.3.067.004.294-.016.682-.048 1.154-.026.47-.055.945-.08 1.42-.026.481-.045.924-.072 1.337a8.05 8.05 0 00-.02.863c.728-.963 1.51-1.92 2.337-2.871a55.502 55.502 0 012.798-2.964.402.402 0 01.074-.095l.093-.098.096-.099-.017.033c.249-.273.556-.579.92-.912.365-.329.73-.498 1.105-.498.61 0 1.148-.104 1.608-.319l-.046.035a3.703 3.703 0 011.507-.293c.195 0 .4.017.614.05.216.035.444.071.69.117l-.183.413c.52 0 .861.09 1.019.258.153.171.207.461.158.867l.026-.063c-.116 1.37-.257 2.74-.415 4.113a207.522 207.522 0 00-.454 4.153 85.31 85.31 0 00-.302 4.134 31.89 31.89 0 00.077 4.07c.058.065.096.215.1.448.009.235-.008.487-.033.756-.034.269-.077.53-.133.787a3.35 3.35 0 01-.138.51c-.057.13-.203.31-.44.545-.231.235-.519.47-.862.706a6.914 6.914 0 01-1.126.623 2.913 2.913 0 01-1.198.275c-.197 0-.313-.076-.36-.225-.075.016-.149.032-.234.045-.083.01-.173.016-.285.016l-.248-.034zm7.296-17.306a.144.144 0 01-.032.05.114.114 0 00-.04.048c-.007.023-.007.039-.002.05a.132.132 0 01-.01.045l.084-.193zm28.197 5.197c.515.126.971.251 1.368.366.394.12.788.23 1.177.34.587-1.345.948-2.456 1.079-3.337.132-.873.127-1.582-.01-2.11l-.012.026c-.274-.685-.722-1.023-1.359-1.023-.716 0-1.5.35-2.339 1.054-.846.706-1.504 1.605-1.982 2.698-.075.17-.151.371-.231.608a7.853 7.853 0 00-.214.707c.391.103.792.21 1.204.314.411.11.853.225 1.319.357zm-61.685 0c.516.126.968.251 1.365.366.395.12.79.23 1.177.34.587-1.345.95-2.456 1.083-3.337.13-.873.125-1.582-.013-2.11l-.012.026c-.27-.685-.72-1.023-1.358-1.023-.717 0-1.501.35-2.34 1.054-.844.706-1.504 1.605-1.982 2.698-.074.17-.152.371-.231.608-.08.235-.154.468-.213.707.39.103.792.21 1.203.314.41.11.852.225 1.321.357zm-53.73 0c.519.126.97.251 1.37.366.394.12.787.23 1.176.34.587-1.345.95-2.456 1.082-3.337.13-.873.125-1.582-.012-2.11l-.013.026c-.27-.685-.72-1.023-1.358-1.023-.715 0-1.5.35-2.34 1.054-.844.706-1.504 1.605-1.98 2.698-.075.17-.153.371-.232.608-.08.235-.156.468-.212.707.389.103.79.21 1.2.314.412.11.856.225 1.32.357z"/><path fill="#153C89" d="M226.567 26a1.433 1.433 0 102.865 0 1.433 1.433 0 00-2.865 0M226 26a1.999 1.999 0 114 0 2 2 0 11-4 0"/><path fill="#153C89" d="M228.164 25.613c0-.05-.01-.092-.032-.128a.202.202 0 00-.11-.086.482.482 0 00-.126-.026 2.886 2.886 0 00-.17-.004h-.193v.538h.163c.086 0 .16-.003.216-.012a.33.33 0 00.147-.055l.079-.09a.312.312 0 00.026-.137zM229 27h-.655l-.565-.732h-.247V27H227v-2h.9c.121 0 .226.008.314.022.09.013.172.041.249.086a.483.483 0 01.256.443.571.571 0 01-.108.36.778.778 0 01-.304.232L229 27z"/></g></svg>