<svg width="165" height="40" viewBox="0 0 165 40" fill="none" xmlns="http://www.w3.org/2000/svg">
	<path d="M126.824 9.12694L132.46 9.12364C133.965 9.12364 134.787 8.50324 135.246 7.91254C135.483 7.60894 135.628 7.30534 135.717 7.07434C135.8 6.86314 135.833 6.70474 135.833 6.70474L136.843 2.95594L113.383 2.95264C111.908 2.95264 111.063 3.54334 110.581 4.10104C110.334 4.38814 110.172 4.67524 110.073 4.88974C109.984 5.08444 109.948 5.21974 109.948 5.21974L108.855 9.12694H118.383V33.3819V34.7184C118.383 37.035 120.072 38.3847 124.336 38.3847H126.821V9.12694H126.824Z" fill="white"/>
	<path d="M102.546 27.7026C100.728 29.5275 98.3055 30.6462 95.6325 30.6462C92.9562 30.6462 90.534 29.5275 88.719 27.6993C86.6862 25.65 85.4157 22.7163 85.4157 19.4691C85.4157 18.3801 85.5576 17.3274 85.8249 16.3341V16.3308C87.0624 11.7009 90.9696 8.29857 95.6358 8.29857C100.302 8.29857 104.209 11.7042 105.447 16.3341C105.711 17.3307 105.856 18.3834 105.856 19.4691C105.849 22.7196 104.582 25.6533 102.546 27.7026L102.553 27.6993L102.546 27.7026ZM111.34 20.7891C111.34 19.2513 111.149 17.7597 110.793 16.3341V16.3308C108.803 8.39427 101.619 2.51367 93.0651 2.51367C84.5115 2.51367 77.3307 8.39097 75.3408 16.3308C74.9844 17.7564 74.793 19.2513 74.793 20.7858C74.793 23.2311 75.2748 25.5642 76.146 27.696C77.0139 29.8179 78.2679 31.7418 79.8222 33.3753C83.1486 36.8766 87.8511 39.0546 93.0651 39.0546C98.2791 39.0546 102.982 36.8733 106.308 33.3753C107.862 31.7385 109.12 29.8146 109.987 27.6927C110.859 25.5675 111.34 23.2344 111.34 20.7891Z" fill="white"/>
	<path d="M66.8495 16.6509H65.2655C63.5495 16.6509 61.8896 17.4 61.091 18.1161C59.936 19.149 59.4509 21.0003 59.2925 21.8022C61.4936 21.7989 61.718 21.7527 63.4109 21.7527C65.117 21.7527 67.361 22.6305 66.5063 25.7391C66.2984 26.4915 65.942 27.1383 65.4866 27.696H65.4833C63.8069 29.7255 60.7478 30.4944 58.4378 30.4944C55.7219 30.4944 53.138 29.4516 51.1811 27.696H51.1745H51.1811C49.0493 25.7787 47.66 23.0133 47.66 19.809C47.66 18.588 47.8646 17.4198 48.2342 16.3308C49.7192 11.9517 53.897 8.88272 58.4411 8.88272H63.0908C64.556 8.88272 65.3777 8.21942 65.843 7.58582C66.0773 7.26242 66.2258 6.93902 66.3149 6.69482C66.3974 6.46052 67.4996 2.98232 67.4996 2.98232L55.9298 2.96582C47.3333 2.96582 40.0865 8.46362 38.1263 16.3308C37.7831 17.7003 37.6016 19.1424 37.6016 20.6373C37.6016 23.1387 38.1065 25.5246 39.0173 27.696H39.0206H39.0173C39.9083 29.8245 41.192 31.7484 42.7793 33.3753C46.0991 36.7875 50.7422 38.9094 55.8803 38.9094C61.2395 38.9094 66.0476 37.0779 69.2816 33.3786C70.6412 31.8177 71.7236 29.9235 72.4463 27.696C72.5189 27.4749 72.5849 27.2505 72.6509 27.0228C72.8225 26.4651 73.1888 25.3596 73.2317 23.5149C73.3208 19.8618 71.2814 16.6509 66.8495 16.6509Z" fill="white"/>
	<path d="M162.87 33.3819L150.792 5.00193C149.963 3.05493 147.785 2.37183 146.31 2.37183C144.545 2.37183 142.057 2.83383 141.255 5.00193L129.012 38.3847H133.312C136.325 38.3847 137.915 38.3319 138.816 35.649L139.592 33.3819L141.228 28.5804C141.228 28.5804 142.453 30.3492 145.607 30.3492C148.201 30.3492 149.333 29.0952 149.798 27.7026H149.789H149.798C150.376 25.9602 149.901 23.9934 149.901 23.9934C149.901 23.9934 149.28 25.3926 146.479 25.3893C144.155 25.3827 142.69 23.7921 143.288 21.9441L144.957 16.3374L146.314 11.7933L154.022 33.3852L154.834 35.6523C155.752 38.3352 157.577 38.388 160.418 38.388H164.998L162.87 33.3819Z" fill="white"/>
	<path d="M158.909 12.9021C160.12 12.9021 160.628 11.9979 160.628 9.38758V3.99538C160.628 2.28598 159.057 0.840576 157.044 0.840576C154.916 0.840576 153.457 1.66228 153.457 3.26938C153.454 6.39448 157.021 12.9021 158.909 12.9021Z" fill="white"/>
	<path d="M32.7501 10.2654C28.4766 10.2654 26.7969 11.6184 26.7969 13.8756V38.3814H29.3511C33.5421 38.3814 35.2317 37.0317 35.2317 34.7151V10.2654H32.7501Z" fill="white"/>
	<path d="M26.9742 6.70804L27.984 2.95594L4.5276 2.95264C3.0525 2.95264 2.2077 3.54334 1.7259 4.10104C1.4751 4.38814 1.3167 4.67524 1.221 4.88644C1.1319 5.08114 1.0956 5.21644 1.0956 5.21644L0 9.12694H9.5271V33.3819V34.7184C9.5271 37.035 11.2134 38.3847 15.4803 38.3847H17.9652V9.12694L23.6016 9.12364C25.1064 9.12364 25.9248 8.50324 26.3868 7.91254C26.6211 7.60894 26.7696 7.30534 26.8554 7.07434C26.9412 6.86644 26.9742 6.70804 26.9742 6.70804Z" fill="white"/>
	<path d="M29.9492 4.69171C29.9492 2.67541 31.3946 1.10791 33.104 1.10791H38.4929C41.1032 1.10791 42.0107 1.61281 42.0107 2.82721C42.0107 4.71151 35.5064 8.27881 32.378 8.27881C30.7709 8.27551 29.9492 6.82021 29.9492 4.69171Z" fill="#D10B48"/>
	</svg>
	