<svg id="Layer_1" data-name="Layer 1" xmlns="http://www.w3.org/2000/svg" xmlns:xlink="http://www.w3.org/1999/xlink" viewBox="0 0 725.96 138.96"><defs><style>.cls-1{fill:none;}.cls-2{clip-path:url(#clip-path);}.cls-3{fill:url(#radial-gradient);}.cls-4{fill:#f99300;}.cls-5{fill:#ec6500;}.cls-6{clip-path:url(#clip-path-2);}.cls-7{clip-path:url(#clip-path-3);}.cls-8{clip-path:url(#clip-path-4);}.cls-9{clip-path:url(#clip-path-5);}.cls-10{clip-path:url(#clip-path-6);}.cls-11{clip-path:url(#clip-path-7);}.cls-12{clip-path:url(#clip-path-8);}.cls-13{clip-path:url(#clip-path-9);}</style><clipPath id="clip-path" transform="translate(-13.04 -306.61)"><path id="SVGID" class="cls-1" d="M64,340.33a23.33,23.33,0,0,0-24.14-19.82,28.33,28.33,0,0,0-4.69.36,23.15,23.15,0,0,0-19.46,19.47,48.07,48.07,0,0,0-.67,8.22v1c.08,12.73,3.27,30.05,8.14,39.21a18,18,0,0,0,16.67,9.14A18.51,18.51,0,0,0,55.08,391a18,18,0,0,0,1.42-2.24c4.93-9.28,8.14-26.91,8.14-39.69a48.08,48.08,0,0,0-.68-8.72m95,8.48a96.85,96.85,0,0,0-1.39-16.49c-2.31-12.58-13.16-25.26-32.89-25.26a32,32,0,0,0-32.91,31.13c0,.18,0,.37,0,.55-.85,18.38-.13,42.45-9.92,59.64l-.06.12h0a40,40,0,0,1-11.39,12.77c-4.78,3.44-10.82,6.12-13.9,11a12.93,12.93,0,0,0-2,7c-.13,12.8,15.45,15.93,26.24,16h.67c1.18,0,2.29-.05,3.31-.12,24.78-1.7,45.08-16,60.28-42.56a107,107,0,0,0,13.78-46.27c.15-2.26.21-4.46.22-6.56Z"/></clipPath><radialGradient id="radial-gradient" cx="210.56" cy="408.19" r="105" gradientTransform="translate(276.07 461.41) rotate(180) scale(0.96)" gradientUnits="userSpaceOnUse"><stop offset="0" stop-color="#162549"/><stop offset="0.5" stop-color="#121e3a"/><stop offset="1" stop-color="#111a32"/></radialGradient><clipPath id="clip-path-2" transform="translate(-13.04 -306.61)"><path id="SVGID-2" data-name="SVGID" class="cls-1" d="M81.76,398.49h0m10-59.77c-.85,18.38-.12,42.45-9.92,59.64,9.8-17.19,9.07-41.26,9.92-59.64a33.14,33.14,0,0,1,10-22.91,33.19,33.19,0,0,0-10,22.91m10-22.91a31,31,0,0,1,8.31-5.64,31,31,0,0,0-8.31,5.64m8.31-5.64h0l0,0m0,0,.14-.06-.14.06m.14-.06.06,0-.06,0m.06,0,.11-.05-.11.05m.11-.05.1,0-.1,0m.1,0,.08,0-.08,0m.08,0a34.26,34.26,0,0,1,12.37-2.85A34.26,34.26,0,0,0,110.57,310m12.37-2.85h0m0,0c.33,0,.66,0,1,0-.34,0-.67,0-1,0m1,0h0m1.37,0c.68,0,1.36,0,2,.08a39.65,39.65,0,0,1,6.59,1,40.29,40.29,0,0,0-8.61-1m8.61,1h0m0,0,.21,0-.21,0m.21,0h0m0,0,.18.05-.18-.05m.18.05h0m0,0,.19.05-.19-.05m.19.05h0m0,0,.19.05-.19-.05m.19.05h0m0,0,.14,0-.14,0m.14,0h0m.05,0,.13,0-.13,0m.13,0h0m.06,0,.11,0-.11,0m.11,0,.08,0-.08,0m.08,0,.09,0-.09,0m.09,0,.1,0-.1,0m.1,0,.08,0-.08,0m.08,0,.11,0-.11,0m.11,0,.07,0-.07,0m.07,0,.12,0-.12,0m.12,0h0m.05,0,.14,0-.14,0m.14,0h0m0,0,.15,0-.15,0m.15,0h0m0,0,.17.06-.17-.06m.17.06h0m22.37,40v-.33a97,97,0,0,0-1.39-16.15,30.38,30.38,0,0,0-21-23.49,30.37,30.37,0,0,1,21,23.48,103.09,103.09,0,0,1,1.16,24A107.16,107.16,0,0,1,145,402.58c-15.2,26.56-35.49,40.83-60.27,42.55-1.11.07-2.34.12-3.65.12-10.79,0-26.69-3.06-26.56-16a13.07,13.07,0,0,1,2-7,12.91,12.91,0,0,0-2,6.63h0V429h0v.12h0v.13a13.41,13.41,0,0,0,.63,4.35c3,9.18,16.14,11.58,25.59,11.64h.67c1.18,0,2.29-.05,3.31-.12,24.78-1.72,45.08-16,60.28-42.56a107.16,107.16,0,0,0,13.77-46.28c.15-2.26.22-4.46.23-6.55Z"/></clipPath><clipPath id="clip-path-3" transform="translate(-13.04 -306.61)"><rect id="SVGID-3" data-name="SVGID" class="cls-1" x="54.06" y="306.61" width="105.56" height="138.96"/></clipPath><clipPath id="clip-path-4" transform="translate(-13.04 -306.61)"><path id="SVGID-4" data-name="SVGID" class="cls-1" d="M157.55,332.31c-2.28-12.42-12.9-24.95-32.2-25.25H124a33.78,33.78,0,0,0-17.15,4.85,32.36,32.36,0,0,0-15.09,26.81c-.85,18.38-.13,42.46-9.92,59.65l-.08.12h0a40,40,0,0,1-11.39,12.79c-4.78,3.43-10.81,6.11-13.88,11a13,13,0,0,0-2,7c-.13,12.93,15.78,16,26.57,16,1.3,0,2.53-.05,3.64-.12,24.78-1.72,45.08-16,60.28-42.56a107.11,107.11,0,0,0,13.76-46.26c.16-2.45.23-4.8.23-7a97.26,97.26,0,0,0-1.39-16.95"/></clipPath><clipPath id="clip-path-5" transform="translate(-13.04 -306.61)"><rect id="SVGID-5" data-name="SVGID" class="cls-1" x="54.06" y="306.61" width="105.56" height="138.96"/></clipPath><clipPath id="clip-path-6" transform="translate(-13.04 -306.61)"><path id="SVGID-6" data-name="SVGID" class="cls-1" d="M39.83,397.87a18,18,0,0,1-16.67-9.14c-6.22-11.67-9.68-36.63-7.47-48.4a23.15,23.15,0,0,1,19.44-19.46,23.16,23.16,0,0,0-19.46,19.47,37.6,37.6,0,0,0-.49,3.8c-.11,1.39-.17,2.87-.18,4.43v1c.09,12.72,3.26,30,8.14,39.21a18,18,0,0,0,16.67,9.13h.71a18.43,18.43,0,0,0,13.91-6.08,18.75,18.75,0,0,1-14.61,6.08m14.64-6.11v0"/></clipPath><clipPath id="clip-path-7" transform="translate(-13.04 -306.61)"><rect id="SVGID-7" data-name="SVGID" class="cls-1" x="13.04" y="320.51" width="42.36" height="77.77"/></clipPath><clipPath id="clip-path-8" transform="translate(-13.04 -306.61)"><path id="SVGID-8" data-name="SVGID" class="cls-1" d="M64.1,341.25c0-.31-.1-.62-.16-.91a23.27,23.27,0,0,0-23.32-19.83H38.43a28.34,28.34,0,0,0-3.31.34A23.14,23.14,0,0,0,15.7,340.33c-2.21,11.78,1.26,36.73,7.47,48.41a18,18,0,0,0,16.67,9.13,18.76,18.76,0,0,0,14.61-6.08l0,0v0a17.52,17.52,0,0,0,2-3,47.36,47.36,0,0,0,3-7.3l.09-.26v0c.21-.63.41-1.27.6-1.93h0l0-.06A114.57,114.57,0,0,0,64.62,349a52.15,52.15,0,0,0-.52-7.8"/></clipPath><clipPath id="clip-path-9" transform="translate(-13.04 -306.61)"><rect id="SVGID-9" data-name="SVGID" class="cls-1" x="13.04" y="320.06" width="53.56" height="78.22"/></clipPath></defs><title>unieurologo-freelogovectors.net</title><g class="cls-2"><rect class="cls-3" x="1.96" y="0.45" width="143.95" height="138.2"/></g><path class="cls-4" d="M23.16,388.73c-6.22-11.67-9.69-36.62-7.46-48.4A23.35,23.35,0,0,1,39.84,320.5,23.34,23.34,0,0,1,64,340.33c2.22,11.78-1.25,36.73-7.46,48.4a18,18,0,0,1-16.67,9.14,18,18,0,0,1-16.67-9.14m61.52,56.38c24.78-1.72,45.07-16,60.27-42.56a107.11,107.11,0,0,0,13.76-46.26,102.49,102.49,0,0,0-1.17-24C155.24,319.72,144.4,307,124.66,307a32,32,0,0,0-32.9,31.13c0,.18,0,.37,0,.55-1.1,23.72.44,56.88-21.38,72.55-6.68,4.82-15.81,8.13-15.91,18-.15,14.49,19.84,16.58,30.21,15.86" transform="translate(-13.04 -306.61)"/><path class="cls-5" d="M262.24,339.31a7.33,7.33,0,0,0-7.49,7.16v45.09c0,15.09-8.3,24.08-22.18,24.08s-22.19-9-22.19-24.08V346.81a7.34,7.34,0,0,0-7.16-7.5h-.33a7.26,7.26,0,0,0-7.34,7.17V393c0,22,14.43,36.85,35.9,36.85h2.23c21.47,0,35.9-14.8,35.9-36.85V346.81a7.25,7.25,0,0,0-7-7.49h-.33" transform="translate(-13.04 -306.61)"/><path class="cls-5" d="M576.5,339.31a7.34,7.34,0,0,0-7.5,7.17v45.08c0,15.09-8.3,24.08-22.19,24.08s-22.18-9-22.18-24.08V346.81a7.34,7.34,0,0,0-7.16-7.5h-.33a7.27,7.27,0,0,0-7.34,7.17c0,.11,0,.22,0,.33V393c0,22,14.42,36.85,35.89,36.85h2.23c21.47,0,35.9-14.8,35.9-36.85V346.81a7.25,7.25,0,0,0-7-7.49h-.33" transform="translate(-13.04 -306.61)"/><path class="cls-5" d="M325.66,338h-2.22c-21.48,0-35.9,14.81-35.9,36.86v46.17a7.24,7.24,0,0,0,7,7.49h.33a7.32,7.32,0,0,0,7.5-7.16V376.31c0-15.07,8.29-24.07,22.18-24.07s22.18,9,22.18,24.07v44.76a7.33,7.33,0,0,0,7.16,7.49h.34a7.24,7.24,0,0,0,7.33-7.16V374.9c0-22-14.42-36.86-35.9-36.86" transform="translate(-13.04 -306.61)"/><path class="cls-5" d="M386.91,339.31a7.35,7.35,0,0,0-7.34,7.35v74.41a7.34,7.34,0,0,0,7.17,7.5h.33a7.25,7.25,0,0,0,7.34-7.17V346.81a7.34,7.34,0,0,0-7.17-7.5h-.33" transform="translate(-13.04 -306.61)"/><path class="cls-5" d="M386.91,307.06a8.2,8.2,0,0,0-8.28,8.14V318a8.2,8.2,0,0,0,8.1,8.29h.18a8.38,8.38,0,0,0,8.45-8.29v-2.69a8.38,8.38,0,0,0-8.45-8.29" transform="translate(-13.04 -306.61)"/><path class="cls-5" d="M452.7,338c-23.51,0-41.92,20.09-41.92,45.75v.31c0,26.08,18.58,45.74,43.2,45.74a44.37,44.37,0,0,0,34.08-14.2,7.13,7.13,0,0,0-5-12.37,6.93,6.93,0,0,0-5,2.11,32.29,32.29,0,0,1-23.72,10.11,28.13,28.13,0,0,1-27.76-24.84H486a7.45,7.45,0,0,0,7.34-7.18c0-26.32-17.1-45.42-40.66-45.42m-.32,14.19c10.69,0,22.51,6.49,25.12,24.36H426.56c2.59-14.33,13-24.36,25.82-24.36" transform="translate(-13.04 -306.61)"/><path class="cls-5" d="M694,338A45.11,45.11,0,0,0,648.77,383c0,.32,0,.64,0,1v.32a45.11,45.11,0,1,0,90.22.88c0-.4,0-.8,0-1.2v-.32a44.78,44.78,0,0,0-44-45.56h-1m0,77.44c-16.71,0-29.79-13.85-29.79-31.54v-.32c0-17.79,12.67-31.22,29.48-31.22s29.79,13.85,29.79,31.54v.32c0,17.8-12.66,31.22-29.48,31.22" transform="translate(-13.04 -306.61)"/><path class="cls-5" d="M640.24,339.33c-.62-.06-2.49,0-2.49,0-21.48,0-35.9,14.81-35.9,36.85v44.9a7.25,7.25,0,0,0,7,7.49h.33a7.34,7.34,0,0,0,7.49-7.17V377.6c0-15.44,8.18-24.52,21.93-24.08h.4a6.92,6.92,0,0,0,7.53-5.91,7.41,7.41,0,0,0-1.45-5.73,6.74,6.74,0,0,0-4.85-2.55" transform="translate(-13.04 -306.61)"/><g class="cls-6"><g class="cls-7"><rect class="cls-1" x="41.02" width="105.37" height="138.96"/></g><g class="cls-8"><g class="cls-9"><rect class="cls-1" x="41.01" width="105.37" height="138.96"/></g><g class="cls-10"><g class="cls-11"><rect class="cls-1" y="13.89" width="42.36" height="76.7"/></g><g class="cls-12"><g class="cls-13"><rect class="cls-1" y="13.45" width="52.91" height="78.22"/></g></g></g></g></g></svg>