<svg width="200" height="200" viewBox="0 0 200 200" xmlns="http://www.w3.org/2000/svg">
  <!-- ZARA: distinctive tight-kerned serif where letters almost overlap -->
  <!-- Z -->
  <g transform="translate(22, 55)">
    <rect x="0" y="0" width="38" height="3" fill="#FFFFFF"/>
    <polygon points="38,0 0,87 0,90 38,3" fill="#FFFFFF"/>
    <rect x="0" y="87" width="38" height="3" fill="#FFFFFF"/>
  </g>
  <!-- A -->
  <g transform="translate(52, 55)">
    <polygon points="20,0 0,90 8,90 20,12 32,90 40,90" fill="#FFFFFF"/>
    <rect x="6" y="58" width="28" height="3" fill="#FFFFFF"/>
  </g>
  <!-- R -->
  <g transform="translate(88, 55)">
    <rect x="0" y="0" width="8" height="90" fill="#FFFFFF"/>
    <path d="M0,0 L28,0 Q40,0 40,20 Q40,40 28,42 L0,42" fill="none" stroke="#FFFFFF" stroke-width="3"/>
    <rect x="0" y="0" width="30" height="3" fill="#FFFFFF"/>
    <rect x="0" y="40" width="26" height="3" fill="#FFFFFF"/>
    <path d="M20,42 L38,90" stroke="#FFFFFF" stroke-width="7" stroke-linecap="round"/>
    <!-- R bowl fill -->
    <path d="M8,3 L26,3 Q35,3 35,20 Q35,38 26,39 L8,39 Z" fill="#FFFFFF"/>
  </g>
  <!-- A -->
  <g transform="translate(128, 55)">
    <polygon points="20,0 0,90 8,90 20,12 32,90 40,90" fill="#FFFFFF"/>
    <rect x="6" y="58" width="28" height="3" fill="#FFFFFF"/>
  </g>
</svg>